<svg xmlns="http://www.w3.org/2000/svg" xmlns:xlink="http://www.w3.org/1999/xlink" width="966.768" height="743.952" viewBox="0 0 966.768 743.952">
  <defs>
    <style>
      .a {
        fill: #379140;
      }

      .b {
        fill: url(#a);
      }

      .c, .m, .u {
        fill: none;
      }

      .c {
        stroke: #b7b7b7;
        stroke-width: 4px;
      }

      .c, .u {
        stroke-linecap: round;
        stroke-miterlimit: 10;
      }

      .d {
        fill: #636363;
      }

      .e {
        fill: #494643;
      }

      .f {
        fill: url(#b);
      }

      .g {
        fill: #898989;
      }

      .h {
        fill: #afafaf;
      }

      .i, .o {
        opacity: 0.5;
      }

      .i {
        fill: url(#c);
      }

      .j {
        fill: #c6c6c6;
      }

      .k {
        fill: url(#d);
      }

      .l {
        fill: #b3b3b3;
      }

      .m {
        stroke: #b3b3b3;
        stroke-linejoin: round;
        stroke-width: 6px;
      }

      .n {
        fill: #999;
      }

      .o {
        fill: url(#e);
      }

      .p {
        fill: #e2e2e2;
      }

      .q {
        fill: #253030;
      }

      .r {
        fill: aqua;
      }

      .s {
        fill: url(#f);
      }

      .t {
        fill: url(#m);
      }

      .u {
        stroke: aqua;
        stroke-width: 5px;
      }

      .v {
        fill: url(#n);
      }

      .w {
        opacity: 0.3;
      }

      .x {
        fill: #142d33;
      }

      .y {
        fill: #1a4f60;
      }
    </style>
    <linearGradient id="a" x1="204.094" y1="754.526" x2="204.094" y2="284.968" gradientUnits="userSpaceOnUse">
      <stop offset="0" stop-color="#b3b3b3"/>
      <stop offset="0.263" stop-color="#999"/>
      <stop offset="1" stop-color="#757575"/>
    </linearGradient>
    <linearGradient id="b" x1="584.994" y1="682.368" x2="584.994" y2="317.975" gradientUnits="userSpaceOnUse">
      <stop offset="0" stop-color="#00b1ff"/>
      <stop offset="0.133" stop-color="#01acfa"/>
      <stop offset="0.298" stop-color="#049ceb"/>
      <stop offset="0.48" stop-color="#0883d2"/>
      <stop offset="0.674" stop-color="#0e60af"/>
      <stop offset="0.876" stop-color="#163383"/>
      <stop offset="1" stop-color="#1b1464"/>
    </linearGradient>
    <linearGradient id="c" x1="560.133" y1="261.058" x2="560.133" y2="689.185" gradientUnits="userSpaceOnUse">
      <stop offset="0" stop-color="#1b1464" stop-opacity="0.2"/>
      <stop offset="0.199" stop-color="#1b1464" stop-opacity="0.253"/>
      <stop offset="0.445" stop-color="#1b1464" stop-opacity="0.405"/>
      <stop offset="0.717" stop-color="#1b1464" stop-opacity="0.657"/>
      <stop offset="1" stop-color="#1b1464"/>
    </linearGradient>
    <linearGradient id="d" x1="435.168" y1="686.185" x2="435.168" y2="69.464" xlink:href="#b"/>
    <linearGradient id="e" x1="496.989" y1="76.102" x2="496.989" y2="765.286" gradientUnits="userSpaceOnUse">
      <stop offset="0" stop-color="#1b1464" stop-opacity="0"/>
      <stop offset="0.356" stop-color="#1b1464" stop-opacity="0.053"/>
      <stop offset="0.797" stop-color="#1b1464" stop-opacity="0.205"/>
      <stop offset="1" stop-color="#1b1464" stop-opacity="0.3"/>
    </linearGradient>
    <linearGradient id="f" x1="796.308" y1="98.092" x2="796.308" y2="716.757" gradientUnits="userSpaceOnUse">
      <stop offset="0" stop-color="#006865"/>
      <stop offset="0.238" stop-color="#026361"/>
      <stop offset="0.534" stop-color="#065355"/>
      <stop offset="0.858" stop-color="#0e3a42"/>
      <stop offset="1" stop-color="#122d38"/>
    </linearGradient>
    <linearGradient id="m" x1="708.091" y1="332.38" x2="708.091" y2="689.285" gradientUnits="userSpaceOnUse">
      <stop offset="0" stop-color="#00a098"/>
      <stop offset="0.197" stop-color="#029b94"/>
      <stop offset="0.442" stop-color="#078b8a"/>
      <stop offset="0.711" stop-color="#0f7278"/>
      <stop offset="0.997" stop-color="#1a4f60"/>
      <stop offset="1" stop-color="#1a4f60"/>
    </linearGradient>
    <linearGradient id="n" x1="884.525" y1="302.994" x2="884.525" y2="691.882" xlink:href="#m"/>
  </defs>
  <g>
    <path class="a" d="M327.027,817.573v-82.23c-180.548,5.984-309.9,22.133-309.9,41.115S146.479,811.588,327.027,817.573Z" transform="translate(-17.123 -76.102)"/>
    <path class="b" d="M295.662,623.031V638.57a5.552,5.552,0,0,1-5.552,5.552h0a5.552,5.552,0,0,1-5.551-5.552V623.031a5.552,5.552,0,0,0-5.551-5.552H258.745a5.552,5.552,0,0,0-5.551,5.552V638.57a5.552,5.552,0,0,1-5.551,5.552h0a5.552,5.552,0,0,1-5.552-5.552V623.031a5.552,5.552,0,0,0-5.551-5.552H216.278a5.552,5.552,0,0,0-5.552,5.552V638.57a5.552,5.552,0,0,1-5.551,5.552h-2.161a5.552,5.552,0,0,1-5.552-5.552v-189.5a5.552,5.552,0,0,0-5.551-5.552H171.649a5.552,5.552,0,0,0-5.552,5.552v15.539a5.552,5.552,0,0,1-5.551,5.552h0A5.552,5.552,0,0,1,155,464.612V449.073a5.552,5.552,0,0,0-5.552-5.552H129.181a5.552,5.552,0,0,0-5.551,5.552v15.539a5.552,5.552,0,0,1-5.552,5.552h0a5.552,5.552,0,0,1-5.551-5.552V449.073a5.552,5.552,0,0,0-5.551-5.552H86.713a5.552,5.552,0,0,0-5.551,5.552V759.735a5.551,5.551,0,0,0,5.551,5.551H327.027V623.031a5.552,5.552,0,0,0-5.552-5.552H301.213A5.552,5.552,0,0,0,295.662,623.031Z" transform="translate(-17.123 -76.102)"/>
    <g>
      <line class="c" x1="91.182" y1="487.057" x2="140.981" y2="487.057"/>
      <line class="c" x1="94.282" y1="507.098" x2="175.391" y2="507.098"/>
      <line class="c" x1="98.378" y1="487.61" x2="98.378" y2="507.098"/>
      <line class="c" x1="133.849" y1="487.057" x2="133.849" y2="507.098"/>
      <line class="c" x1="116.081" y1="487.057" x2="116.081" y2="469.001"/>
      <line class="c" x1="156.957" y1="507.098" x2="156.957" y2="523.106"/>
      <line class="c" x1="269.85" y1="615.729" x2="220.051" y2="615.729"/>
      <line class="c" x1="266.75" y1="595.689" x2="185.641" y2="595.689"/>
      <line class="c" x1="262.654" y1="615.177" x2="262.654" y2="595.689"/>
      <line class="c" x1="227.183" y1="615.729" x2="227.183" y2="595.689"/>
      <line class="c" x1="244.95" y1="615.729" x2="244.95" y2="633.785"/>
      <line class="c" x1="204.075" y1="595.689" x2="204.075" y2="579.681"/>
      <line class="c" x1="98.876" y1="649.302" x2="148.675" y2="649.302"/>
      <line class="c" x1="101.976" y1="629.261" x2="183.085" y2="629.261"/>
      <line class="c" x1="106.073" y1="648.749" x2="106.073" y2="629.261"/>
      <line class="c" x1="141.544" y1="649.302" x2="141.544" y2="629.261"/>
      <line class="c" x1="123.776" y1="649.302" x2="123.776" y2="667.358"/>
      <line class="c" x1="164.651" y1="629.261" x2="164.651" y2="613.253"/>
    </g>
    <path class="d" d="M121.907,514.246h0a17.41,17.41,0,0,1,17.41,17.41v26.8A6.547,6.547,0,0,1,132.77,565H111.045a6.547,6.547,0,0,1-6.547-6.547v-26.8A17.41,17.41,0,0,1,121.907,514.246Z"/>
    <path class="d" d="M121.907,422.49h0a17.41,17.41,0,0,1,17.41,17.41v26.8a6.547,6.547,0,0,1-6.547,6.547H111.045A6.547,6.547,0,0,1,104.5,466.7V439.9a17.41,17.41,0,0,1,17.41-17.41Z"/>
    <path class="d" d="M121.907,606h0a17.41,17.41,0,0,1,17.41,17.41v26.8a6.547,6.547,0,0,1-6.547,6.547H111.045a6.547,6.547,0,0,1-6.547-6.547v-26.8A17.41,17.41,0,0,1,121.907,606Z"/>
    <path class="d" d="M266.986,606h0a17.41,17.41,0,0,1,17.41,17.41v26.8a6.547,6.547,0,0,1-6.547,6.547H256.124a6.547,6.547,0,0,1-6.547-6.547v-26.8A17.41,17.41,0,0,1,266.986,606Z"/>
    <path class="d" d="M194.447,608.41h0a27.7,27.7,0,0,1,27.7,27.7v53.07a0,0,0,0,1,0,0H166.742a0,0,0,0,1,0,0v-53.07A27.7,27.7,0,0,1,194.447,608.41Z"/>
    <path class="a" d="M76.362,767.1s4.6-29.307-7.751-46.5c0,0,21.8,22.525,26.642,46.5,0,0-2.422-20.345,4.6-26.158,0,0-1.937,20.345,5.571,26.158Z" transform="translate(-17.123 -76.102)"/>
    <path class="a" d="M141.756,769.04s14.836-10.414,14.684-18.407c0,0,2.27,15.259-4.754,18.407S141.756,769.04,141.756,769.04Z" transform="translate(-17.123 -76.102)"/>
    <path class="a" d="M280.037,771.644s-4.36-19.8-14.351-22.343c0,0,14.714,4,17.621,12.352a71.166,71.166,0,0,1,11.807-18.891,41.707,41.707,0,0,0-5.631,19.073s7.207-9.446,13.049-10.718c0,0-18.317,18.529-3.967,25.8S280.037,771.644,280.037,771.644Z" transform="translate(-17.123 -76.102)"/>
  </g>
  <g>
    <path class="e" d="M345.555,817.573c48.466,1.607,100.62,2.481,154.952,2.481s106.486-.874,154.952-2.481v-82.23c-48.466-1.607-100.62-2.481-154.952-2.481s-106.486.874-154.952,2.481Z" transform="translate(-17.123 -76.102)"/>
    <g>
      <rect class="f" x="531.653" y="317.975" width="106.683" height="364.392"/>
      <rect class="g" x="570.054" y="323.077" width="14.404" height="156.405" transform="translate(961.413 -252.079) rotate(90)"/>
      <rect class="h" x="540.22" y="663.18" width="98.116" height="26.004"/>
      <rect class="g" x="623.932" y="317.975" width="14.404" height="371.209"/>
      <rect class="h" x="572.457" y="288.152" width="25.075" height="394.215"/>
      <rect class="g" x="531.653" y="317.975" width="14.404" height="364.392"/>
      <rect class="g" x="577.792" y="261.058" width="14.404" height="428.127"/>
    </g>
    <polygon class="i" points="623.932 317.975 597.532 317.975 597.532 288.152 592.196 288.152 592.196 261.058 577.792 261.058 577.792 288.152 572.457 288.152 572.457 317.975 546.057 317.975 531.653 317.975 481.931 317.975 481.931 332.38 531.653 332.38 531.653 682.368 540.22 682.368 540.22 689.185 638.336 689.185 638.336 682.368 638.336 663.18 638.336 332.38 638.336 317.975 623.932 317.975"/>
    <g>
      <polygon class="j" points="521.805 279.953 513.772 272.743 607.487 188.629 615.52 195.839 521.805 279.953"/>
      <path class="j" d="M536.785,259.632V275.8c0,3.653,24.991,6.614,55.819,6.614s55.818-2.961,55.818-6.614v-16.17Z" transform="translate(-17.123 -76.102)"/>
      <g>
        <polygon class="k" points="331.432 686.185 331.432 69.464 434.019 69.464 538.903 163.603 538.903 686.185 331.432 686.185"/>
        <path class="l" d="M449.993,148.565l103.033,92.478V759.286H351.555V148.565h98.438m2.3-6H345.555V765.286H559.026V238.366l-106.735-95.8Z" transform="translate(-17.123 -76.102)"/>
      </g>
      <g>
        <line class="m" x1="355.929" y1="651.799" x2="355.929" y2="66.464"/>
        <line class="m" x1="355.929" y1="623.926" x2="540.22" y2="623.926"/>
        <line class="m" x1="355.929" y1="596.053" x2="540.22" y2="596.053"/>
        <line class="m" x1="355.929" y1="568.179" x2="540.22" y2="568.179"/>
        <line class="m" x1="355.929" y1="540.306" x2="540.22" y2="540.306"/>
        <line class="m" x1="355.929" y1="512.433" x2="540.22" y2="512.433"/>
        <line class="m" x1="355.929" y1="484.56" x2="540.22" y2="484.56"/>
        <line class="m" x1="355.929" y1="456.687" x2="540.22" y2="456.687"/>
        <line class="m" x1="355.929" y1="428.814" x2="540.22" y2="428.814"/>
        <line class="m" x1="355.929" y1="400.941" x2="540.22" y2="400.941"/>
        <line class="m" x1="355.929" y1="373.068" x2="540.22" y2="373.068"/>
        <line class="m" x1="355.929" y1="345.195" x2="540.22" y2="345.195"/>
        <line class="m" x1="355.929" y1="317.322" x2="540.22" y2="317.322"/>
        <line class="m" x1="355.929" y1="289.449" x2="540.22" y2="289.449"/>
        <line class="m" x1="355.929" y1="261.575" x2="540.22" y2="261.575"/>
        <line class="m" x1="355.929" y1="233.702" x2="540.22" y2="233.702"/>
        <line class="m" x1="355.929" y1="205.829" x2="540.22" y2="205.829"/>
        <line class="m" x1="355.929" y1="177.956" x2="540.22" y2="177.956"/>
        <line class="m" x1="355.929" y1="150.083" x2="523.781" y2="150.083"/>
        <line class="m" x1="355.929" y1="122.21" x2="492.779" y2="122.21"/>
        <line class="m" x1="355.929" y1="94.337" x2="462.383" y2="94.337"/>
      </g>
      <rect class="j" x="328.432" width="36.76" height="689.185"/>
      <rect class="n" x="365.192" y="30.714" width="14.025" height="658.47"/>
      <rect class="n" x="365.192" y="645.701" width="199.703" height="43.484"/>
      <rect class="n" x="376.973" y="654.981" width="192.488" height="24.924"/>
      <rect class="n" x="389.595" y="672.786" width="184.074" height="16.399"/>
    </g>
    <path class="o" d="M559.026,259.632V238.366l-106.735-95.8H396.34V106.816H382.316V76.1H345.555V765.286H590.792v-16.4h-4.207v-17.8h-4.566V721.8H559.026V338.015l63.057-56.6c15.811-1.168,26.339-3.246,26.339-5.616v-16.17Zm0,63.963V281.086c9.344.835,20.971,1.33,33.578,1.33,4.295,0,8.472-.059,12.489-.168Z" transform="translate(-17.123 -76.102)"/>
    <rect class="p" x="338.424" y="713.889" width="35.012" height="5.45"/>
    <rect class="p" x="401.275" y="713.889" width="35.012" height="5.45"/>
    <rect class="p" x="464.126" y="713.889" width="35.012" height="5.45"/>
    <rect class="p" x="526.978" y="713.889" width="35.012" height="5.45"/>
    <rect class="p" x="589.829" y="713.889" width="35.012" height="5.45"/>
  </g>
  <g>
    <path class="q" d="M673.988,735.343v82.23c180.548-5.985,309.9-22.133,309.9-41.115S854.536,741.327,673.988,735.343Z" transform="translate(-17.123 -76.102)"/>
    <g>
      <polygon class="r" points="768.869 147.118 823.747 201.794 823.747 687.186 768.869 687.186 768.869 147.118"/>
      <g>
        <polygon class="s" points="813.282 635.256 779.334 635.256 746.582 689.185 846.034 689.185 813.282 635.256"/>
        <polygon class="s" points="813.282 86.356 779.334 120.304 779.334 662.22 813.282 662.22 813.282 86.356"/>
        <rect class="s" x="759.317" y="409.33" width="73.981" height="22.454"/>
        <rect class="s" x="759.317" y="462.934" width="73.981" height="22.454"/>
        <rect class="s" x="759.317" y="491.393" width="73.981" height="22.454"/>
        <rect class="s" x="759.317" y="573.457" width="73.981" height="22.454"/>
        <rect class="s" x="759.317" y="601.915" width="73.981" height="22.454"/>
      </g>
      <g>
        <polygon class="t" points="656.865 689.285 656.865 504.927 711.431 450.361 711.431 332.38 759.317 380.266 759.317 689.285 656.865 689.285"/>
        <polyline class="u" points="666.558 685.077 666.558 510.832 722.361 455.028 722.361 360.591"/>
        <polygon class="u" points="725.662 463.534 677.94 511.256 725.662 511.256 725.662 463.534"/>
        <polygon class="u" points="675.08 568.719 722.802 520.998 675.08 520.998 675.08 568.719"/>
        <polyline class="u" points="751.495 383.685 751.495 505.025 675.418 581.102 675.418 685.077"/>
      </g>
      <g>
        <polygon class="v" points="935.752 689.285 935.752 504.927 881.185 450.361 881.185 332.38 833.299 380.266 833.299 689.285 935.752 689.285"/>
        <polyline class="u" points="926.059 685.077 926.059 510.832 870.255 455.028 870.255 360.591"/>
        <polygon class="u" points="866.954 463.534 914.676 511.256 866.954 511.256 866.954 463.534"/>
        <polygon class="u" points="917.536 568.719 869.815 520.998 917.536 520.998 917.536 568.719"/>
        <polyline class="u" points="841.121 383.685 841.121 505.025 917.198 581.102 917.198 685.077"/>
      </g>
    </g>
    <g class="w">
      <path class="r" d="M785.992,812.151c19.441-1.281,37.784-2.7,54.878-4.238V767.485H785.992Z" transform="translate(-17.123 -76.102)"/>
      <path class="x" d="M791.809,811.762q23.883-1.624,45.383-3.521l25.965-42.754H763.705Z" transform="translate(-17.123 -76.102)"/>
      <path class="y" d="M850.422,807.03c44.217-4.216,79.351-9.271,102.453-14.887V765.387H850.422Z" transform="translate(-17.123 -76.102)"/>
      <path class="r" d="M943.182,767.2a2.4,2.4,0,0,0-2.4,2.4v25.22q2.465-.5,4.794-1V769.6A2.4,2.4,0,0,0,943.182,767.2Z" transform="translate(-17.123 -76.102)"/>
      <path class="r" d="M934.321,767.2a2.4,2.4,0,0,0-2.4,2.4V796.5c1.631-.3,3.234-.591,4.794-.89V769.6A2.4,2.4,0,0,0,934.321,767.2Z" transform="translate(-17.123 -76.102)"/>
      <path class="y" d="M776.441,765.387H673.988v52.186c36.453-1.208,70.816-2.832,102.453-4.808Z" transform="translate(-17.123 -76.102)"/>
      <path class="r" d="M683.681,767.2a2.4,2.4,0,0,0-2.4,2.4v47.729c1.6-.056,3.2-.114,4.794-.172V769.6A2.4,2.4,0,0,0,683.681,767.2Z" transform="translate(-17.123 -76.102)"/>
      <path class="r" d="M692.542,767.2a2.4,2.4,0,0,0-2.4,2.4v47.41c1.6-.06,3.2-.122,4.793-.183V769.6A2.4,2.4,0,0,0,692.542,767.2Z" transform="translate(-17.123 -76.102)"/>
    </g>
  </g>
</svg>
