<svg width="960" height="59" xmlns="http://www.w3.org/2000/svg" version="1.1">
 <g>
  <title>Layer 1</title>
  <path d="m0,16l16,-3.5c16,-3.5 48,-10.5 80,-12c32,-1.5 64,2.5 96,4.2c32,1.6 64,1 96,0.5c32,-0.5 64,-0.9 96,0.1c32,1 64,3.4 96,2.4c32,-1 64,-5.4 96,-6c32,-0.7 64,2.3 96,3c32,0.6 64,-1 96,0.1c32,1.2 64,5.2 96,5.4c32,0.1 64,-3.5 80,-5.4l16,-1.8l0,51l-16,0c-16,0 -48,0 -80,0c-32,0 -64,0 -96,0c-32,0 -64,0 -96,0c-32,0 -64,0 -96,0c-32,0 -64,0 -96,0c-32,0 -64,0 -96,0c-32,0 -64,0 -96,0c-32,0 -64,0 -96,0c-32,0 -64,0 -96,0c-32,0 -64,0 -80,0l-16,0l0,-38z" fill="#a97d1b" id="svg_2"/>
  <path d="m0,29l16,1c16,1 48,3 80,0c32,-3 64,-11 96,-12.8c32,-1.9 64,2.5 96,2.5c32,0 64,-4.4 96,-4.9c32,-0.5 64,2.9 96,5c32,2.2 64,3.2 96,4.4c32,1.1 64,2.5 96,1.1c32,-1.3 64,-5.3 96,-5.3c32,0 64,4 96,4c32,0 64,-4 80,-6l16,-2l0,44l-16,0c-16,0 -48,0 -80,0c-32,0 -64,0 -96,0c-32,0 -64,0 -96,0c-32,0 -64,0 -96,0c-32,0 -64,0 -96,0c-32,0 -64,0 -96,0c-32,0 -64,0 -96,0c-32,0 -64,0 -96,0c-32,0 -64,0 -96,0c-32,0 -64,0 -80,0l-16,0l0,-31z" fill="#59441c" id="svg_3"/>
  <path d="m0,36l16,0.3c16,0.4 48,1 80,0c32,-1 64,-3.6 96,-3.8c32,-0.2 64,2.2 96,5c32,2.8 64,6.2 96,6.7c32,0.5 64,-1.9 96,-2.7c32,-0.8 64,-0.2 96,0.5c32,0.7 64,1.3 96,0.3c32,-1 64,-3.6 96,-6.3c32,-2.7 64,-5.3 96,-5.2c32,0.2 64,3.2 80,4.7l16,1.5l0,23l-16,0c-16,0 -48,0 -80,0c-32,0 -64,0 -96,0c-32,0 -64,0 -96,0c-32,0 -64,0 -96,0c-32,0 -64,0 -96,0c-32,0 -64,0 -96,0c-32,0 -64,0 -96,0c-32,0 -64,0 -96,0c-32,0 -64,0 -96,0c-32,0 -64,0 -80,0l-16,0l0,-24z" fill="#000000" id="svg_4"/>
 </g>

</svg>