<svg width="960" height="59" xmlns="http://www.w3.org/2000/svg" version="1.1">

 <g>
  <title>Layer 1</title>
  <path id="svg_2" fill="#a97d1b" d="m0,54l14.5,1c14.5,1 43.5,3 72.7,0.7c29.1,-2.4 58.5,-9 87.6,-12.4c29.2,-3.3 58.2,-3.3 87.2,-2.6c29,0.6 58,2 87,5.1c29,3.2 58,8.2 87.2,9.7c29.1,1.5 58.5,-0.5 87.6,-2.2c29.2,-1.6 58.2,-3 87.2,-3.3c29,-0.3 58,0.3 87,1.8c29,1.5 58,3.9 87.2,3c29.1,-0.8 58.5,-4.8 87.6,-6c29.2,-1.1 58.2,0.5 72.7,1.4l14.5,0.8l0,-51l-14.5,0c-14.5,0 -43.5,0 -72.7,0c-29.1,0 -58.5,0 -87.6,0c-29.2,0 -58.2,0 -87.2,0c-29,0 -58,0 -87,0c-29,0 -58,0 -87.2,0c-29.1,0 -58.5,0 -87.6,0c-29.2,0 -58.2,0 -87.2,0c-29,0 -58,0 -87,0c-29,0 -58,0 -87.2,0c-29.1,0 -58.5,0 -87.6,0c-29.2,0 -58.2,0 -72.7,0l-14.5,0l0,54z"/>
  <path id="svg_3" fill="#59441c" d="m0,38l14.5,-2.2c14.5,-2.1 43.5,-6.5 72.7,-6.6c29.1,-0.2 58.5,3.8 87.6,6.1c29.2,2.4 58.2,3 87.2,2c29,-1 58,-3.6 87,-4.1c29,-0.5 58,1.1 87.2,2.5c29.1,1.3 58.5,2.3 87.6,2.5c29.2,0.1 58.2,-0.5 87.2,0.1c29,0.7 58,2.7 87,0.9c29,-1.9 58,-7.5 87.2,-9.5c29.1,-2 58.5,-0.4 87.6,0.8c29.2,1.2 58.2,1.8 72.7,2.2l14.5,0.3l0,-33l-14.5,0c-14.5,0 -43.5,0 -72.7,0c-29.1,0 -58.5,0 -87.6,0c-29.2,0 -58.2,0 -87.2,0c-29,0 -58,0 -87,0c-29,0 -58,0 -87.2,0c-29.1,0 -58.5,0 -87.6,0c-29.2,0 -58.2,0 -87.2,0c-29,0 -58,0 -87,0c-29,0 -58,0 -87.2,0c-29.1,0 -58.5,0 -87.6,0c-29.2,0 -58.2,0 -72.7,0l-14.5,0l0,38z"/>
  <path id="svg_4" fill="#121214" d="m0,20l14.5,0.3c14.5,0.4 43.5,1 72.7,0.7c29.1,-0.3 58.5,-1.7 87.6,-3.2c29.2,-1.5 58.2,-3.1 87.2,-2.5c29,0.7 58,3.7 87,4.7c29,1 58,0 87.2,-0.8c29.1,-0.9 58.5,-1.5 87.6,-1c29.2,0.5 58.2,2.1 87.2,2.5c29,0.3 58,-0.7 87,-0.7c29,0 58,1 87.2,1.3c29.1,0.4 58.5,0 87.6,-0.1c29.2,-0.2 58.2,-0.2 72.7,-0.2l14.5,0l0,-21l-14.5,0c-14.5,0 -43.5,0 -72.7,0c-29.1,0 -58.5,0 -87.6,0c-29.2,0 -58.2,0 -87.2,0c-29,0 -58,0 -87,0c-29,0 -58,0 -87.2,0c-29.1,0 -58.5,0 -87.6,0c-29.2,0 -58.2,0 -87.2,0c-29,0 -58,0 -87,0c-29,0 -58,0 -87.2,0c-29.1,0 -58.5,0 -87.6,0c-29.2,0 -58.2,0 -72.7,0l-14.5,0l0,20z"/>
 </g>
</svg>