<svg width="128" height="128" xmlns="http://www.w3.org/2000/svg" version="1.1" clip-rule="evenodd">
 <g>
  <title>Layer 1</title>
  <g id="svg_1">
   <path fill="#df8319" d="m4.09674,66.04202c0.79346,-1.38864 0.79346,-2.77698 0,-4.16563c-0.88374,-1.33746 -1.72677,-2.7261 -2.52913,-4.16563c-1.15191,-3.04716 -0.30885,-5.32843 2.52913,-6.84353c1.09101,-0.49601 1.88444,-1.28926 2.38036,-2.38036c0.41195,-0.83551 0.61032,-1.72814 0.59509,-2.6779c-0.45917,-2.17089 -0.85589,-4.35278 -1.19018,-6.54598c-0.16654,-1.60109 0.42855,-2.84096 1.78527,-3.71931c1.45193,-0.7757 2.93965,-1.46987 4.46317,-2.08281c1.41822,-0.72274 2.26128,-1.86352 2.52913,-3.42176c0.05585,-2.29645 0.25422,-4.57773 0.59509,-6.84353c0.29754,-0.49601 0.59509,-0.99172 0.89263,-1.48772c2.8872,-0.95304 5.81313,-1.79628 8.77757,-2.52913c0.73077,-0.71634 1.27617,-1.5594 1.6365,-2.52913c0.53647,-1.70856 1.13156,-3.39466 1.78527,-5.05826c0.85961,-1.44741 2.14887,-2.14167 3.86808,-2.08281c2.2173,0.43242 4.44889,0.58119 6.69476,0.44632c2.05008,-1.2676 3.5872,-3.0033 4.61194,-5.20703c1.25058,-1.93612 2.98616,-2.58081 5.20703,-1.93404c2.02479,0.91361 4.1076,1.65747 6.24844,2.23159c1.06342,-0.13964 2.05544,-0.48675 2.97545,-1.04141c1.41869,-1.41911 3.0055,-2.60929 4.76072,-3.57054c0.99172,-0.19837 1.98373,-0.19837 2.97545,0c1.75522,0.96125 3.34202,2.15143 4.76072,3.57054c0.92001,0.55465 1.91202,0.90177 2.97545,1.04141c2.14083,-0.57411 4.22365,-1.31797 6.24844,-2.23159c2.22087,-0.64677 3.95645,-0.00208 5.20703,1.93404c1.02474,2.20374 2.56186,3.93943 4.61194,5.20703c2.24587,0.13488 4.47745,-0.0139 6.69476,-0.44632c1.93999,0.059 3.32863,0.95164 4.16563,2.6779c0.60372,2.01985 1.29789,4.00346 2.08281,5.95089c0.46357,0.55311 1.00897,0.99942 1.6365,1.33895c2.16583,0.55938 4.34772,1.05539 6.54598,1.48772c1.2119,0.31897 2.05514,1.06283 2.52913,2.23159c0.34396,2.36518 0.54213,4.74554 0.59509,7.14107c0.40169,1.394 1.24463,2.4354 2.52913,3.12422c2.19409,0.72422 4.12814,1.86471 5.80212,3.42176c0.31153,0.75547 0.4603,1.54872 0.44632,2.38036c-0.11069,1.7329 -0.45792,3.41909 -1.04141,5.05826c-0.30974,1.46987 -0.11128,2.85821 0.59509,4.16563c1.79479,1.69541 3.48098,3.48068 5.05826,5.35581c0.19846,1.0911 0.19846,2.1819 0,3.27299c-0.81765,1.53712 -1.71029,3.02484 -2.6779,4.46317c-0.59509,1.58681 -0.59509,3.17391 0,4.76072c1.02147,1.51659 1.91411,3.10369 2.6779,4.76072c0.19846,0.99172 0.19846,1.98373 0,2.97545c-1.57728,1.87513 -3.26347,3.6604 -5.05826,5.35581c-0.70637,1.30741 -0.90483,2.69576 -0.59509,4.16563c0.50404,1.65911 0.85128,3.345 1.04141,5.05826c0.16663,1.60109 -0.42846,2.84096 -1.78527,3.71931c-1.93136,0.91584 -3.81601,1.90786 -5.65335,2.97545c-0.4609,0.36122 -0.80783,0.80754 -1.04141,1.33895c-0.3517,2.16345 -0.55016,4.34534 -0.59509,6.54598c-0.0732,1.78824 -0.91644,3.02811 -2.52913,3.71931c-2.53211,0.40377 -5.01155,0.99886 -7.43862,1.78527c-0.24785,0.24785 -0.49601,0.49601 -0.74386,0.74386c-0.96881,2.01319 -1.76206,4.096 -2.38036,6.24844c-0.70697,1.8177 -2.04592,2.71033 -4.01685,2.6779c-2.26461,-0.46149 -4.54589,-0.61026 -6.84353,-0.44632c-2.05008,1.26754 -3.5872,3.00342 -4.61194,5.20703c-1.38269,2.01438 -3.21765,2.65916 -5.50458,1.93404c-1.99147,-0.8724 -4.02459,-1.61626 -6.09967,-2.23159c-0.78373,0.12913 -1.52759,0.37699 -2.23159,0.74386c-1.38864,1.0911 -2.77698,2.1819 -4.16563,3.27299c-1.78527,0.99172 -3.57054,0.99172 -5.35581,0c-1.38864,-1.0911 -2.77698,-2.1819 -4.16563,-3.27299c-0.70399,-0.36687 -1.44785,-0.61473 -2.23159,-0.74386c-2.63714,0.86258 -5.26535,1.75522 -7.88494,2.6779c-1.58532,-0.24518 -2.82519,-1.03873 -3.71931,-2.38036c-1.02474,-2.20362 -2.56186,-3.93949 -4.61194,-5.20703c-2.29764,-0.16395 -4.57892,-0.01517 -6.84353,0.44632c-1.97094,0.03243 -3.30989,-0.8602 -4.01685,-2.6779c-0.59806,-2.39256 -1.54009,-4.62414 -2.82667,-6.69476c-0.52814,-0.42817 -1.12323,-0.72571 -1.78527,-0.89263c-1.99385,-0.34158 -3.97749,-0.73821 -5.95089,-1.19018c-1.52524,-0.61473 -2.36828,-1.75551 -2.52913,-3.42176c-0.09917,-1.88435 -0.19837,-3.769 -0.29754,-5.65335c-0.16546,-1.4547 -0.90933,-2.4961 -2.23159,-3.12422c-1.5869,-0.79355 -3.17382,-1.58681 -4.76072,-2.38036c-1.70187,-1.45321 -2.24739,-3.28787 -1.6365,-5.50458c0.8264,-2.01378 1.12395,-4.0966 0.89263,-6.24844c-0.19837,-0.39663 -0.39672,-0.79355 -0.59509,-1.19018c-1.60299,-1.60287 -3.18992,-3.18998 -4.76072,-4.76072c-0.4564,-1.25296 -0.55561,-2.54222 -0.29754,-3.86808c0.87071,-1.64423 1.81291,-3.23104 2.82667,-4.76072l0.00002,0z" id="svg_2"/>
  </g>
  <g id="svg_2">
   <path fill="#000" d="m59.44006,6.83062c23.93628,-0.75517 42.1362,8.96464 54.59946,29.15938c9.74221,18.87505 9.64283,37.71945 -0.29754,56.5335c-9.82165,16.34889 -24.25257,25.72155 -43.29276,28.11798c-21.7163,1.75998 -39.22175,-5.9265 -52.51664,-23.05972c-10.62267,-15.53422 -13.39975,-32.39488 -8.33125,-50.5826c6.39721,-18.69563 18.94378,-31.2422 37.63941,-37.63941c4.05494,-1.10395 8.12148,-1.94698 12.19933,-2.52913l-0.00001,0z" opacity="0.984" id="svg_4"/>
  </g>
  <g id="svg_3">
   <path fill="#df8319" d="m60.33269,9.50853c24.7709,-0.39083 42.67327,10.42002 53.70682,32.43238c7.67784,19.39367 5.59503,37.64328 -6.24844,54.74823c-14.142,17.37899 -32.34162,24.27221 -54.59946,20.67936c-19.63379,-4.65657 -33.07299,-16.40959 -40.31731,-35.25905c-6.31319,-20.15062 -2.74265,-38.30085 10.71161,-54.45069c9.95436,-10.70486 22.20309,-16.75495 36.74677,-18.15023l0.00001,0z" id="svg_6"/>
  </g>
  <g id="svg_4">
   <path fill="#000" d="m58.84497,12.18643c22.24325,-1.154 39.15361,7.67308 50.73138,26.48148c6.96463,13.00955 8.35327,26.59752 4.16563,40.76363c-7.48682,20.87425 -22.21528,32.92481 -44.18539,36.15168c-22.24206,1.30295 -39.15242,-7.47462 -50.73138,-26.33271c-7.40824,-14.34612 -8.40004,-29.12398 -2.97545,-44.33416c8.3503,-18.77835 22.68213,-29.68842 42.99521,-32.72992z" id="svg_8"/>
  </g>
  <g id="svg_5">
   <path fill="#df8319" d="m60.03515,16.94714c1.48772,0 2.97545,0 4.46317,0c0,0.59509 0,1.19018 0,1.78527c-1.49844,-0.13044 -2.93647,0.06793 -4.3144,0.59509c-0.19846,1.0911 -0.19846,2.1819 0,3.27299c0.32135,1.12799 1.06521,1.6237 2.23159,1.48772c0,-1.0911 0,-2.1819 0,-3.27299c0.89263,0 1.78527,0 2.6779,0c0.2663,1.49546 0.2663,2.98318 0,4.46317c-5.91251,2.28009 -8.54072,0.29665 -7.88494,-5.95089c0.64299,-1.19161 1.58532,-1.98504 2.82667,-2.38036l0.00001,0z" id="svg_10"/>
  </g>
  <g id="svg_6">
   <path fill="#df8319" d="m68.3664,17.24469c2.1929,0.22039 4.3748,0.51794 6.54598,0.89263c0,0.59509 0,1.19018 0,1.78527c-1.23303,0.05058 -2.4232,-0.14788 -3.57054,-0.59509c-0.47191,0.49779 -0.67037,1.09288 -0.59509,1.78527c0.99172,0.09908 1.98373,0.19846 2.97545,0.29754c0,0.59509 0,1.19018 0,1.78527c-1.08485,-0.23298 -2.17565,-0.28267 -3.27299,-0.14877c-0.26958,0.50553 -0.36866,1.05123 -0.29754,1.6365c1.18453,0.15502 2.3747,0.2541 3.57054,0.29754c-0.14669,0.68614 -0.24577,1.38031 -0.29754,2.08281c-2.04502,-0.37937 -4.07845,-0.776 -6.09967,-1.19018c0.19995,-2.88618 0.54689,-5.76255 1.04141,-8.6288l-0.00001,0.00001z" id="svg_12"/>
  </g>
  <g id="svg_7">
   <path fill="#df8319" d="m78.78047,20.51768c2.26342,-0.17882 4.24686,0.46596 5.95089,1.93404c-0.2419,0.53647 -0.58914,0.98279 -1.04141,1.33895c-1.02534,-0.3145 -2.01706,-0.71113 -2.97545,-1.19018c-1.4056,1.02742 -2.00069,2.41577 -1.78527,4.16563c0.74892,0.84562 1.69095,1.34163 2.82667,1.48772c-0.09908,0.59509 -0.19846,1.19018 -0.29754,1.78527c-5.23857,-0.42103 -6.77599,-2.99985 -4.61194,-7.73616c0.61383,-0.66471 1.25832,-1.2598 1.93404,-1.78527l0.00001,0z" id="svg_14"/>
  </g>
  <g id="svg_8">
   <path fill="#df8319" d="m46.34809,20.81523c3.30185,-0.17377 5.1865,1.41304 5.65335,4.76072c-0.06933,1.25207 -0.56533,2.29347 -1.48772,3.12422c-1.53979,0.91882 -3.1266,1.76176 -4.76072,2.52913c-1.53979,-2.4839 -2.92844,-5.06272 -4.16563,-7.73616c1.51867,-1.05569 3.10547,-1.94832 4.76072,-2.6779l0,-0.00001z" id="svg_16"/>
  </g>
  <g id="svg_9">
   <path fill="#000" d="m46.05055,22.89804c0.84056,-0.12467 1.48505,0.17287 1.93404,0.89263c0.93251,1.05777 1.27974,2.24795 1.04141,3.57054c-0.44661,0.37253 -0.94262,0.67007 -1.48772,0.89263c-1.00064,-1.40322 -1.89328,-2.89094 -2.6779,-4.46317c0.41686,-0.30379 0.81378,-0.60134 1.19018,-0.89263l-0.00001,0z" id="svg_18"/>
  </g>
  <g id="svg_10">
   <path fill="#df8319" d="m38.01684,25.87349c0.66323,0.16514 1.15894,0.56206 1.48772,1.19018c-0.68941,0.83818 -1.43327,1.63174 -2.23159,2.38036c0.00506,0.61532 0.3026,1.11103 0.89263,1.48772c0.69893,-0.74892 1.44279,-1.44309 2.23159,-2.08281c0.44066,0.29159 0.83759,0.63883 1.19018,1.04141c-0.74892,0.69893 -1.44309,1.44279 -2.08281,2.23159c0.32194,0.67959 0.81765,1.02653 1.48772,1.04141c0.74386,-0.74386 1.48772,-1.48772 2.23159,-2.23159c0.44632,0.44632 0.89263,0.89263 1.33895,1.33895c-1.53741,1.53741 -3.07453,3.07453 -4.61194,4.61194c-2.10215,-2.12536 -4.13557,-4.30726 -6.09967,-6.54598c1.39489,-1.49367 2.78353,-2.9814 4.16563,-4.46317l0,-0.00001z" id="svg_20"/>
  </g>
  <g id="svg_11">
   <path fill="#df8319" d="m88.00435,24.38576c0.86318,0.38443 1.55735,0.97952 2.08281,1.78527c-0.47548,0.92269 -1.12026,1.71624 -1.93404,2.38036c-0.20471,0.24756 -0.15502,0.44572 0.14877,0.59509c1.23303,-0.52636 2.4726,-1.02236 3.71931,-1.48772c0.77153,0.60967 1.5154,1.25415 2.23159,1.93404c-1.51569,0.72036 -3.1028,1.16667 -4.76072,1.33895c-0.21245,1.90577 -0.55968,3.79042 -1.04141,5.65335c-0.8239,-0.77243 -1.56776,-1.56598 -2.23159,-2.38036c0.53826,-1.34579 0.78611,-2.73444 0.74386,-4.16563c-0.78254,1.08068 -1.67518,2.0724 -2.6779,2.97545c-0.59985,-0.64984 -1.24463,-1.24493 -1.93404,-1.78527c1.77902,-2.37351 3.66337,-4.65479 5.65335,-6.84353l0.00001,0z" id="svg_22"/>
  </g>
  <g id="svg_12">
   <path fill="#df8319" d="m94.25279,33.60965c3.29412,0.1208 5.17877,1.80699 5.65335,5.05826c-0.53826,2.91564 -2.32353,4.50245 -5.35581,4.76072c-1.12859,-0.14282 -2.07091,-0.63883 -2.82667,-1.48772c-1.39489,-1.59663 -1.79152,-3.38189 -1.19018,-5.35581c1.03813,-1.29075 2.278,-2.28247 3.71931,-2.97545z" id="svg_24"/>
  </g>
  <g id="svg_13">
   <path fill="#df8319" d="m30.87576,34.20474c2.3637,-0.36092 3.60327,0.63109 3.71931,2.97545c0.23923,-0.388 0.58646,-0.58646 1.04141,-0.59509c1.13781,0.27999 2.22861,0.67662 3.27299,1.19018c-0.43412,0.61979 -0.83074,1.26457 -1.19018,1.93404c-1.11252,0.09492 -2.20362,-0.05386 -3.27299,-0.44632c-0.78968,0.28832 -0.98785,0.78433 -0.59509,1.48772c0.79355,0.49601 1.58681,0.99172 2.38036,1.48772c-0.43412,0.61979 -0.83074,1.26457 -1.19018,1.93404c-0.74892,0.07647 -1.44309,-0.12199 -2.08281,-0.59509c-1.85995,-1.1033 -3.69461,-2.24378 -5.50458,-3.42176c0.59003,-2.26759 1.73052,-4.25102 3.42176,-5.95089z" id="svg_26"/>
  </g>
  <g id="svg_14">
   <path fill="#000" d="m95.74052,36.28755c2.45415,0.67781 2.65231,1.8183 0.59509,3.42176c-0.99945,0.80545 -2.09055,1.05331 -3.27299,0.74386c-0.52249,-0.50315 -0.67126,-1.09824 -0.44632,-1.78527c0.9816,-0.90781 2.02301,-1.70136 3.12422,-2.38036l0,0.00001z" id="svg_28"/>
  </g>
  <g id="svg_15">
   <path fill="#000" d="m30.87576,36.88264c1.77099,0.03243 2.16791,0.77629 1.19018,2.23159c-1.98909,-0.03719 -2.38571,-0.78105 -1.19018,-2.23159z" id="svg_30"/>
  </g>
  <g id="svg_16">
   <path fill="#df8319" d="m53.19162,40.75072c0.31302,-0.04433 0.61056,0.00506 0.89263,0.14877c-2.86298,1.77188 -5.24333,4.05315 -7.14107,6.84353c1.80669,-0.67632 3.69134,-1.22172 5.65335,-1.6365c2.46427,0.46179 3.00966,1.75105 1.6365,3.86808c-0.94232,0.94232 -1.88435,1.88435 -2.82667,2.82667c1.07473,0.64537 2.16583,0.74475 3.27299,0.29754c2.46308,-2.90671 5.24006,-3.25395 8.33125,-1.04141c-0.61116,0.50404 -1.30563,0.85128 -2.08281,1.04141c1.85132,-0.03184 3.43813,-0.72601 4.76072,-2.08281c3.71782,-1.34014 7.43713,-1.29075 11.15793,0.14877c3.50329,-1.88881 6.32997,-1.14495 8.48002,2.23159c2.15244,0.6183 4.23525,1.41155 6.24844,2.38036c1.69214,1.55854 1.49397,2.8478 -0.59509,3.86808c-7.70522,4.63634 -15.93739,6.12407 -24.69621,4.46317c1.24433,0.91941 2.63297,1.5145 4.16563,1.78527c7.29133,0.60699 14.03548,-1.0295 20.23304,-4.90949c0.09908,0.09908 0.19846,0.19846 0.29754,0.29754c-4.70091,8.35119 -11.84198,12.0705 -21.42322,11.15793c-2.64249,-0.67453 -5.3204,-0.873 -8.03371,-0.59509c-3.94128,1.57431 -4.98268,4.3019 -3.12422,8.18248c0.24964,0.33444 0.59687,0.5329 1.04141,0.59509c0.9822,-0.31361 1.97421,-0.46238 2.97545,-0.44632c1.03129,0.79177 1.13037,1.6844 0.29754,2.6779c-0.29754,0.04969 -0.59509,0.09908 -0.89263,0.14877c-1.00302,-0.32046 -1.99474,-0.618 -2.97545,-0.89263c-0.04433,0.31302 0.00506,0.61056 0.14877,0.89263c0.68941,0.39276 1.2845,0.88847 1.78527,1.48772c0.23655,1.84865 -0.50731,2.49313 -2.23159,1.93404c-0.54957,-1.0417 -1.04557,-2.08311 -1.48772,-3.12422c-0.291,0.14193 -0.53885,0.34009 -0.74386,0.59509c-0.01756,0.98844 -0.36479,1.83169 -1.04141,2.52913c-1.97927,0.15383 -2.62405,-0.68911 -1.93404,-2.52913c0.63585,-0.2913 1.18155,-0.68792 1.6365,-1.19018c-0.19846,-0.09908 -0.39663,-0.19846 -0.59509,-0.29754c-0.52546,0.17585 -1.02147,0.4237 -1.48772,0.74386c-1.28093,0.45792 -2.07448,0.06129 -2.38036,-1.19018c-0.00476,-0.68584 0.29278,-1.18185 0.89263,-1.48772c1.22678,-0.13003 2.41696,0.01875 3.57054,0.44632c0.0482,-0.60312 -0.00149,-1.19821 -0.14877,-1.78527c-0.97743,-1.47076 -1.82038,-3.00818 -2.52913,-4.61194c0.29963,-1.34371 0.94411,-2.4842 1.93404,-3.42176c0.21423,-0.47964 0.16484,-0.92596 -0.14877,-1.33895c-2.76032,-1.67161 -5.587,-3.20902 -8.48002,-4.61194c-1.09645,0.17287 -2.08817,0.5698 -2.97545,1.19018c-0.14788,1.19732 -0.09849,2.3875 0.14877,3.57054c0.75844,0.03362 1.45261,-0.16484 2.08281,-0.59509c1.28242,0.33712 1.72873,1.13067 1.33895,2.38036c-0.33236,0.48321 -0.77867,0.78076 -1.33895,0.89263c-0.88579,-0.45852 -1.77842,-0.80575 -2.6779,-1.04141c-0.13598,0.12318 -0.23536,0.27196 -0.29754,0.44632c1.96558,1.26516 1.96558,2.45534 0,3.57054c-0.62514,-0.03928 -1.07146,-0.33682 -1.33895,-0.89263c-0.14788,-0.7873 -0.19757,-1.58086 -0.14877,-2.38036c-0.34962,-0.06516 -0.64716,0.03392 -0.89263,0.29754c-0.29278,1.53831 -1.18542,2.18309 -2.6779,1.93404c-0.63228,-0.51684 -0.88014,-1.16161 -0.74386,-1.93404c0.82658,-0.78492 1.76861,-1.38001 2.82667,-1.78527c-0.11515,-0.363 -0.363,-0.56147 -0.74386,-0.59509c-0.81736,0.73166 -1.75968,0.97952 -2.82667,0.74386c-1.19018,-0.89263 -1.19018,-1.78527 0,-2.6779c1.16519,0.04136 2.30567,-0.00803 3.42176,-0.14877c-0.29695,-1.99355 -0.19787,-3.97698 0.29754,-5.95089c0.24785,-0.24785 0.49601,-0.49601 0.74386,-0.74386c0.96166,0.11574 1.90369,0.06605 2.82667,-0.14877c-0.40198,-2.0239 -0.00536,-3.90825 1.19018,-5.65335c1.21666,-1.81294 2.65469,-3.44944 4.3144,-4.90949c-1.02504,0.41865 -1.91768,1.11311 -2.6779,2.08281c-1.52878,0.93875 -3.16528,1.58324 -4.90949,1.93404c-0.91049,0.08182 -1.50558,-0.3148 -1.78527,-1.19018c-0.17377,-0.82033 -0.07439,-1.61359 0.29754,-2.38036c2.46724,-3.2599 5.49208,-5.88841 9.07511,-7.88494c1.71356,-0.85663 3.39945,-1.69987 5.05826,-2.52913l-0.00001,0.00001z" id="svg_32"/>
  </g>
  <g id="svg_17">
   <path fill="#df8319" d="m22.54451,46.10653c2.08638,0.59658 4.06982,1.43982 5.95089,2.52913c-4.31767,10.35694 -4.31767,20.72131 0,31.09342c-1.85906,0.60342 -3.69402,1.29789 -5.50458,2.08281c-0.14877,-0.09908 -0.29754,-0.19846 -0.44632,-0.29754c-4.75515,-11.80747 -4.75515,-23.61017 0,-35.40782l0.00001,0z" id="svg_34"/>
  </g>
  <g id="svg_18">
   <path fill="#df8319" d="m105.55949,45.80898c3.40778,7.2345 4.64765,14.87158 3.71931,22.91094c-0.50285,4.08737 -1.49457,8.05454 -2.97545,11.90179c-0.15562,0.51267 -0.45316,0.9093 -0.89263,1.19018c-1.87453,-0.70726 -3.70949,-1.50082 -5.50458,-2.38036c4.34475,-10.28196 4.34475,-20.54725 0,-30.79588c1.9025,-0.95125 3.78685,-1.89357 5.65335,-2.82667z" id="svg_36"/>
  </g>
  <g id="svg_19">
   <path fill="#000" d="m71.63939,54.14024c4.58427,-0.0604 6.22077,2.12179 4.90949,6.54598c-1.67637,2.11346 -3.70949,2.55978 -6.09967,1.33895c-2.12596,-2.11703 -2.32442,-4.39831 -0.59509,-6.84353c0.57486,-0.43412 1.16995,-0.78105 1.78527,-1.04141l0,0.00001z" id="svg_40"/>
  </g>
  <g id="svg_20">
   <path fill="#df8319" d="m73.12712,55.33041c0.48321,-0.04166 0.83015,0.15681 1.04141,0.59509c0.44304,1.57342 0.79028,3.16022 1.04141,4.76072c-0.48321,0.04166 -0.83015,-0.15681 -1.04141,-0.59509c-0.56533,-1.54545 -0.91257,-3.13225 -1.04141,-4.76072z" id="svg_42"/>
  </g>
  <g id="svg_21">
   <path fill="#df8319" d="m85.62399,68.71993c0.67602,1.1759 1.27111,2.41547 1.78527,3.71931c0.39663,0.19846 0.79355,0.19846 1.19018,0c0.91852,-1.13603 1.95993,-1.2848 3.12422,-0.44632c0.46923,1.36246 0.02291,2.25509 -1.33895,2.6779c-0.64329,-0.45227 -1.33746,-0.74981 -2.08281,-0.89263c-0.06516,0.34962 0.03392,0.64716 0.29754,0.89263c1.65643,0.26481 2.15214,1.15745 1.48772,2.6779c-0.74267,0.72988 -1.53593,0.77957 -2.38036,0.14877c-0.31361,-0.70875 -0.51207,-1.45261 -0.59509,-2.23159c-0.39663,0 -0.79355,0 -1.19018,0c0.42668,0.95155 0.57545,1.94356 0.44632,2.97545c-1.35472,1.31009 -2.29705,1.06223 -2.82667,-0.74386c0.02916,-0.85485 0.42608,-1.44994 1.19018,-1.78527c-0.32522,-0.40615 -0.72184,-0.50553 -1.19018,-0.29754c-0.64656,1.65405 -1.68797,2.00129 -3.12422,1.04141c-0.28088,-0.84711 -0.13211,-1.59097 0.44632,-2.23159c3.64254,0.68911 4.23763,-0.40198 1.78527,-3.27299c1.06521,-0.67751 2.05722,-1.42137 2.97545,-2.23159l-0.00001,0.00001z" id="svg_46"/>
  </g>
  <g id="svg_22">
   <path fill="#df8319" d="m36.52911,89.8456c1.02474,0.47845 1.818,1.22231 2.38036,2.23159c-1.15566,1.76682 -2.09799,3.60148 -2.82667,5.50458c1.68946,-1.29343 3.37535,-2.58299 5.05826,-3.86808c0.83432,0.53647 1.57818,1.18125 2.23159,1.93404c-1.08098,1.91321 -2.0233,3.84725 -2.82667,5.80212c1.68946,-1.29343 3.37535,-2.58299 5.05826,-3.86808c0.79087,0.54361 1.53474,1.1387 2.23159,1.78527c-2.60203,1.92095 -5.23054,3.8053 -7.88494,5.65335c-1.03099,-0.73285 -1.97302,-1.5758 -2.82667,-2.52913c0.93012,-1.51301 1.82276,-3.05013 2.6779,-4.61194c-0.09908,-0.09908 -0.19846,-0.19846 -0.29754,-0.29754c-1.38864,1.0911 -2.77698,2.1819 -4.16563,3.27299c-1.19881,-0.60372 -2.09144,-1.49635 -2.6779,-2.6779c1.29194,-2.78204 2.5815,-5.55903 3.86808,-8.33125l-0.00002,-0.00002z" id="svg_48"/>
  </g>
  <g id="svg_23">
   <path fill="#df8319" d="m90.68226,89.8456c0.58884,0.39038 1.08455,0.88639 1.48772,1.48772c-0.79355,0.89263 -1.58681,1.78527 -2.38036,2.6779c0.29159,0.44066 0.63883,0.83759 1.04141,1.19018c0.69893,-0.74892 1.44279,-1.44309 2.23159,-2.08281c0.67959,0.32194 1.02653,0.81765 1.04141,1.48772c-0.64478,0.64478 -1.28926,1.28926 -1.93404,1.93404c0.44632,0.44632 0.89263,0.89263 1.33895,1.33895c0.89263,-0.89263 1.78527,-1.78527 2.6779,-2.6779c0.40198,0.45197 0.8483,0.8486 1.33895,1.19018c-1.39846,1.79866 -2.93587,3.48484 -4.61194,5.05826c-2.19409,-2.24408 -4.42568,-4.42598 -6.69476,-6.54598c1.38358,-1.78021 2.87131,-3.4664 4.46317,-5.05826z" id="svg_50"/>
  </g>
  <g id="svg_24">
   <path fill="#df8319" d="m85.02891,95.49895c0.6305,0.38413 1.12621,0.92983 1.48772,1.6365c-0.74416,0.49779 -1.43833,1.04349 -2.08281,1.6365c1.07176,2.06169 2.26194,4.04512 3.57054,5.95089c-0.67543,0.73642 -1.46898,1.33151 -2.38036,1.78527c-1.33895,-2.08281 -2.6779,-4.16563 -4.01685,-6.24844c-0.66948,0.35943 -1.31426,0.75606 -1.93404,1.19018c-0.60788,-0.32105 -1.00451,-0.81706 -1.19018,-1.48772c2.19052,-1.4907 4.37242,-2.97842 6.54598,-4.46317l0,-0.00001z" id="svg_52"/>
  </g>
  <g id="svg_25">
   <path fill="#df8319" d="m48.72845,99.06949c2.0001,0.73315 3.98383,1.5267 5.95089,2.38036c0.21751,0.56563 0.21751,1.16072 0,1.78527c-1.24046,-0.21512 -2.43064,-0.61175 -3.57054,-1.19018c-0.61086,0.42817 -0.9084,1.02326 -0.89263,1.78527c1.06223,0.22197 2.05425,0.6186 2.97545,1.19018c-0.24785,0.49601 -0.49601,0.99172 -0.74386,1.48772c-0.88817,-0.39425 -1.78081,-0.79087 -2.6779,-1.19018c-0.50969,0.43263 -0.85693,0.97833 -1.04141,1.6365c1.14317,0.59568 2.33335,1.042 3.57054,1.33895c-0.07587,0.74862 -0.32403,1.44309 -0.74386,2.08281c-1.60793,-0.70161 -3.24443,-1.34639 -4.90949,-1.93404c-0.58854,-0.14312 -0.98517,-0.49006 -1.19018,-1.04141c1.09288,-2.78383 2.18398,-5.56111 3.27299,-8.33125z" id="svg_54"/>
  </g>
  <g id="svg_26">
   <path fill="#df8319" d="m76.10256,100.25967c0.58051,-0.08123 1.02683,0.11694 1.33895,0.59509c1.03367,2.75437 1.97599,5.53136 2.82667,8.33125c-0.97862,0.26005 -1.97064,0.45852 -2.97545,0.59509c-0.87091,-2.91028 -1.86293,-5.78665 -2.97545,-8.6288c0.62306,-0.3029 1.21815,-0.60045 1.78527,-0.89263l0.00001,0z" id="svg_56"/>
  </g>
  <g id="svg_27">
   <path fill="#df8319" d="m56.16707,102.04494c2.33097,0.03094 4.61224,0.37818 6.84353,1.04141c1.00094,0.90037 1.14971,1.94178 0.44632,3.12422c-0.44364,0.44751 -0.98904,0.69536 -1.6365,0.74386c1.60853,0.58914 2.15393,1.72993 1.6365,3.42176c-0.23357,0.53141 -0.58051,0.97773 -1.04141,1.33895c-2.30865,0.21751 -4.58992,0.06873 -6.84353,-0.44632c-0.09908,-0.44632 -0.19846,-0.89263 -0.29754,-1.33895c0.43233,-2.61482 0.72988,-5.24304 0.89263,-7.88494l0,0.00001z" id="svg_58"/>
  </g>
  <g id="svg_28">
   <path fill="#df8319" d="m68.66395,102.04494c1.19018,0 2.38036,0 3.57054,0c0,0.69417 0,1.38864 0,2.08281c-1.09556,-0.04909 -2.18636,0.0003 -3.27299,0.14877c-0.424,0.50999 -0.32492,0.90662 0.29754,1.19018c1.56598,0.02529 2.90493,0.57069 4.01685,1.6365c1.00659,2.69486 0.06427,4.23228 -2.82667,4.61194c-1.18601,0.14847 -2.37619,0.19816 -3.57054,0.14877c0,-0.69417 0,-1.38864 0,-2.08281c1.28926,0 2.57882,0 3.86808,0c0.07796,-0.43977 -0.02113,-0.8364 -0.29754,-1.19018c-3.7077,-0.08123 -5.04666,-1.8665 -4.01685,-5.35581c0.74803,-0.44751 1.49189,-0.84443 2.23159,-1.19018l-0.00001,0.00001z" id="svg_60"/>
  </g>
  <g id="svg_29">
   <path fill="#000" d="m58.84497,104.12775c1.83347,-0.3999 2.42856,0.24458 1.78527,1.93404c-0.58706,0.14728 -1.18215,0.19697 -1.78527,0.14877c0,-0.69417 0,-1.38864 0,-2.08281z" id="svg_62"/>
  </g>
  <g id="svg_30">
   <path fill="#000" d="m58.54742,107.69829c1.84507,-0.33771 2.53954,0.35676 2.08281,2.08281c-0.76945,0.29159 -1.563,0.39068 -2.38036,0.29754c0.09908,-0.79355 0.19846,-1.58681 0.29754,-2.38036l0.00001,0.00001z" id="svg_64"/>
  </g>
 </g>

</svg>
