<svg xmlns="http://www.w3.org/2000/svg" viewBox="0 0 1410.5681 448.7291"><defs><style>.cls-1{fill:#df8319;}</style></defs><g id="Layer_1" data-name="Layer 1"><path class="cls-1" d="M847.99,237.0246l-21.66,163.29h43.9l2.5563-29.3535h15.1892l2.2722,29.3535h43.4064l-24.29-163.29Zm24.2533,104.9906q1.6672-21.6723,8.15-68.5735,3.2416,40.8439,6.4709,68.5735Z" transform="translate(-70.3477 -0.6355)"/><polygon class="cls-1" points="912.974 367.004 938.796 367.004 938.796 399.679 870.506 399.679 870.506 236.389 912.974 236.389 912.974 367.004"/><polygon class="cls-1" points="644.644 227.967 571.02 227.967 571.02 113.727 589.79 64.677 641.816 64.677 641.816 97.353 613.475 97.353 613.475 128.311 640.001 128.311 640.001 159.381 613.475 159.381 613.475 195.28 644.644 195.28 644.644 227.967"/><path class="cls-1" d="M595.8246,315.0946q12.5961,3.13,16.9428,8.3725,4.3344,5.2422,5.3965,9.6322,1.0558,4.3716,1.062,24.1545v43.0608H579.7834V346.0534q0-13.1147-2.0623-16.2389-2.0745-3.13-10.8424-3.1243v73.6244H531.956l37.9359-99.1373c3.1984-.2346,5.5323-.8521,7.0142-1.877q2.8711-1.9635,2.8773-12.7564v-8.9777c0-.7286-.0247-1.42-.0618-2.087l13.942-36.4294c.531.0988,1.0373.1977,1.5066.2964a27.9777,27.9777,0,0,1,17.3378,11.855q6.7056,9.5209,6.7179,30.4031,0,19.06-4.742,25.624Q609.742,313.7856,595.8246,315.0946Z" transform="translate(-70.3477 -0.6355)"/><polygon class="cls-1" points="1022.707 367.004 1022.707 399.679 949.082 399.679 949.082 236.389 1019.879 236.389 1019.879 269.064 991.538 269.064 991.538 300.036 1018.063 300.036 1018.063 331.093 991.538 331.093 991.538 367.004 1022.707 367.004"/><path class="cls-1" d="M723.9078,250.7443a38.6335,38.6335,0,0,0-16.7946-12.8553,61.3338,61.3338,0,0,0-23.5494-4.2974q-13.8185,0-24.2039,4.5444a39.0437,39.0437,0,0,0-23.747,31.7244q-1.167,10.225-1.1608,34.8364v27.9456q0,25.21,1.21,35.2932a39.2544,39.2544,0,0,0,24.3521,31.5269,61.6116,61.6116,0,0,0,23.5494,4.285q13.8185,0,24.2163-4.5444a39.0029,39.0029,0,0,0,23.7469-31.712q1.167-10.2435,1.1608-34.8487V304.6968q0-25.2105-1.21-35.2933A38.6081,38.6081,0,0,0,723.9078,250.7443ZM690.22,354.0184q0,14.43-1.21,18.2641-1.204,3.8343-5.5447,3.8281c-2.8279,0-4.6185-1.1114-5.3964-3.3341q-1.1485-3.3159-1.1609-17.5479V278.9863q0-12.6144,1.7659-15.1769a5.8048,5.8048,0,0,1,5.1-2.5809q3.9268,0,5.1865,3.1861,1.26,3.1674,1.26,14.5717Z" transform="translate(-70.3477 -0.6355)"/><path class="cls-1" d="M838.9875,237.0246,808.0287,341.2125v59.1021H768.6974V341.2125l-29.86-104.1879h39.01q9.1506,47.8089,10.3113,64.35,3.538-26.1366,11.83-64.35Z" transform="translate(-70.3477 -0.6355)"/><polygon class="cls-1" points="539.814 195.28 560.733 195.28 560.733 227.967 527.305 227.967 539.814 195.28"/><path class="cls-1" d="M370.3279,49.6854H425.577v163.29H388.4561l-.0494-110.2389L373.625,212.9754H347.31l-15.5844-107.72-.0493,107.72H294.5549V49.6854h54.94q2.4451,14.7262,5.0384,34.7129l6.0386,41.5294Z" transform="translate(-70.3477 -0.6355)"/><path class="cls-1" d="M587.5579,223.4226,573.616,259.8519q-.3335-6.02-2.7168-8.1009c-1.84-1.6053-5.2236-2.42-10.1261-2.42v36.3182c1.0744,0,2.0869-.037,3.0131-.0988L525.85,384.6873h-7.5452v-163.29h30.0573Q576.4255,221.3973,587.5579,223.4226Z" transform="translate(-70.3477 -0.6355)"/><path class="cls-1" d="M160.4208,119.8768q4.7235-6.5574,4.73-25.6117,0-20.8758-6.7055-30.4154a28,28,0,0,0-17.35-11.8427q-10.6324-2.3339-40.69-2.3216H70.3477v163.29h42.4679V139.3387q8.7616,0,10.8424,3.1366,2.056,3.1119,2.0622,16.2389v54.2612h39.43V169.9023q0-19.7644-1.05-24.1545-1.0743-4.39-5.3964-9.6322-4.3345-5.242-16.9428-8.3725Q155.6726,126.4464,160.4208,119.8768ZM125.72,99.2047q0,10.78-2.8772,12.7564-2.8712,1.9635-10.0274,1.9635V77.6187c4.9026,0,8.2862.8027,10.1261,2.42Q125.72,82.4657,125.72,90.227Z" transform="translate(-70.3477 -0.6355)"/><path class="cls-1" d="M235.6505,49.6854h42.4679V158.8129q0,18.5605-1.21,26.0687-1.2039,7.5206-7.1624,15.4362a37.2664,37.2664,0,0,1-15.6831,12.0031q-9.7432,4.0752-22.9443,4.0751-14.6336,0-25.8216-4.8408-11.1882-4.8345-16.7452-12.6082a35.0091,35.0091,0,0,1-6.5573-16.387q-1-8.6134-1-36.2565V49.6854H223.45v122.44q0,10.688,1.1608,13.67a4.5594,4.5594,0,0,0,4.6926,2.9761q4.038,0,5.1866-3.2848,1.1668-3.2787,1.1608-15.4856Z" transform="translate(-70.3477 -0.6355)"/><path class="cls-1" d="M537.6806,199.1446q3.7788-7.965,3.7788-24.525V159.4921q0-15.9486-5.2483-23.6729-5.2422-7.7241-19.9683-11.0523,13.2072-3.0194,17.7084-8.6689,4.4826-5.6311,4.4827-19.9559,0-21.1536-6.36-30.687A30.0953,30.0953,0,0,0,515.3907,52.81q-10.3359-3.1305-30.4153-3.1244H442.6185v163.29H491.73q25.6179,0,33.8979-2.9268A20.3907,20.3907,0,0,0,537.6806,199.1446Zm-38.6768-29.3411q0,9.8914-2.4822,12.4107-2.4636,2.5191-11.4475,2.8156V139.3387q9.484.3149,11.7069,2.5315,2.2227,2.2044,2.2228,12.7071Zm-1.7166-59.0526q-1.7226,3.0748-7.9774,3.0749c-1,0-2.42.0371-4.2357.0988V77.6187c4.3716.0617,7.3229.37,8.8295.9015a6.7762,6.7762,0,0,1,3.68,3.89c.9385,2.05,1.42,5.6311,1.42,10.7436Q499.0038,107.6761,497.2872,110.7509Z" transform="translate(-70.3477 -0.6355)"/><polygon class="cls-1" points="583.685 49.05 564.914 98.1 564.914 49.05 583.685 49.05"/><polygon class="cls-1" points="533.708 179.652 521.199 212.34 486.338 212.34 486.338 49.05 528.806 49.05 528.806 179.652 533.708 179.652"/><path class="cls-1" d="M672.8026.6355l-18.77,49.05h-16.636a81.329,81.329,0,0,0,21.278-24.3138Z" transform="translate(-70.3477 -0.6355)"/><path class="cls-1" d="M513.1856,449.3645l18.77-49.05h16.636a81.33,81.33,0,0,0-21.278,24.3138Z" transform="translate(-70.3477 -0.6355)"/><path class="cls-1" d="M1411.2111,144.7243a35.5952,35.5952,0,0,1,2.4576,7.497c-21.0418-23.26-73.8634-24.1369-126.0791-.2942-54,24.6573-88.4462,67.1206-81.8291,98.6279a36.0278,36.0278,0,0,1-6.101-9.232c-14.5826-31.9361,20.9532-79.45,79.3716-106.1248S1396.6285,112.7882,1411.2111,144.7243Z" transform="translate(-70.3477 -0.6355)"/><path class="cls-1" d="M1254.296,82.1167a118.9011,118.9011,0,0,1,38.9828-10.3006,149.4293,149.4293,0,0,1,33.38.6395,116.3331,116.3331,0,0,1,35.2876,10.503,106.81,106.81,0,0,1,17.0963,10.4322,113.9407,113.9407,0,0,1,16.264,14.88,136.2486,136.2486,0,0,1,15.04,20.29,177.9519,177.9519,0,0,1,12.6736,25.3005,40.58,40.58,0,0,1,.2608,8.3116,64.3187,64.3187,0,0,1-6.2519,23.271c-5.3061,11.3256-13.7717,22.3379-25.1615,32.7309-14.799,13.5038-34.5107,25.9252-58.5876,36.9192s-46.3735,17.7544-66.27,20.0935c-15.3135,1.8-29.18.9851-41.2134-2.4228a64.3173,64.3173,0,0,1-21.68-10.5167,40.5679,40.5679,0,0,1-6.11-5.6408,177.9486,177.9486,0,0,1-10.8186-26.1475,136.2507,136.2507,0,0,1-5.4822-24.6544,113.9356,113.9356,0,0,1-.5927-22.036,106.8193,106.8193,0,0,1,3.3136-19.7518,116.3373,116.3373,0,0,1,15.1744-33.545,149.4371,149.4371,0,0,1,21.3791-25.6437,118.9018,118.9018,0,0,1,33.3155-22.7123m-6.9146-15.143a135.8268,135.8268,0,0,0-37.9681,25.8836c-32.531,31.4322-68.491,89.3161-25.5076,172.74,0,0,39.6357,57.9063,156.29,4.64S1439.05,149.0934,1439.05,149.0934c-34.89-87.1195-102.1835-97.8559-147.242-93.8591a135.8261,135.8261,0,0,0-44.4266,11.7394Z" transform="translate(-70.3477 -0.6355)"/><path class="cls-1" d="M1477.0446,175.1947c12.63,30.0924-.8505,95.0776-113.3721,146.4572s-170.4585,19.005-184.9268-10.248a130.88,130.88,0,0,1-12.7288-44.4q1.4788,3.0882,3.09,6.2184A16.6665,16.6665,0,0,0,1170.1677,275c1.3452,1.9643,13.9782,19.4628,43.0746,28.75,16.4144,5.24,34.9243,6.8533,55.0166,4.7939,24.0592-2.4653,50.59-10.259,78.8512-23.1637s51.527-27.8489,69.1473-44.4154c14.7155-13.8345,25.6193-28.8786,32.41-44.7146,12.038-28.07,7.0886-49.0773,6.4853-51.38a16.687,16.687,0,0,0-.6487-1.9657q-1.3092-3.27-2.6752-6.4078A130.88,130.88,0,0,1,1477.0446,175.1947Z" transform="translate(-70.3477 -0.6355)"/></g></svg>
