<svg width="960" height="300" xmlns="http://www.w3.org/2000/svg" version="1.1">

 <g>
  <title>Layer 1</title>
  <path id="svg_2" fill="#ffbc01" d="m0,104l20,-8.5c20,-8.5 60,-25.5 100,-25.7c40,-0.1 80,16.5 120,17c40,0.5 80,-15.1 120,-12.5c40,2.7 80,23.7 120,26.2c40,2.5 80,-13.5 120,-21c40,-7.5 80,-6.5 120,-11.8c40,-5.4 80,-17 120,-10.7c40,6.3 80,30.7 100,42.8l20,12.2l0,189l-20,0c-20,0 -60,0 -100,0c-40,0 -80,0 -120,0c-40,0 -80,0 -120,0c-40,0 -80,0 -120,0c-40,0 -80,0 -120,0c-40,0 -80,0 -120,0c-40,0 -80,0 -120,0c-40,0 -80,0 -100,0l-20,0l0,-197z"/>
  <path id="svg_3" fill="#be8d19" d="m0,121l20,4.3c20,4.4 60,13 100,15.4c40,2.3 80,-1.7 120,-7.5c40,-5.9 80,-13.5 120,-21.7c40,-8.2 80,-16.8 120,-11.7c40,5.2 80,24.2 120,33c40,8.9 80,7.5 120,-0.6c40,-8.2 80,-23.2 120,-28c40,-4.9 80,0.5 100,3.1l20,2.7l0,191l-20,0c-20,0 -60,0 -100,0c-40,0 -80,0 -120,0c-40,0 -80,0 -120,0c-40,0 -80,0 -120,0c-40,0 -80,0 -120,0c-40,0 -80,0 -120,0c-40,0 -80,0 -120,0c-40,0 -80,0 -100,0l-20,0l0,-180z"/>
  <path id="svg_4" fill="#80601d" d="m0,171l20,-4.5c20,-4.5 60,-13.5 100,-12.8c40,0.6 80,11 120,18.3c40,7.3 80,11.7 120,5c40,-6.7 80,-24.3 120,-28.8c40,-4.5 80,4.1 120,11.5c40,7.3 80,13.3 120,12.3c40,-1 80,-9 120,-16.5c40,-7.5 80,-14.5 100,-18l20,-3.5l0,168l-20,0c-20,0 -60,0 -100,0c-40,0 -80,0 -120,0c-40,0 -80,0 -120,0c-40,0 -80,0 -120,0c-40,0 -80,0 -120,0c-40,0 -80,0 -120,0c-40,0 -80,0 -120,0c-40,0 -80,0 -100,0l-20,0l0,-131z"/>
  <path id="svg_5" fill="#47371a" d="m0,208l20,-3.8c20,-3.9 60,-11.5 100,-13.2c40,-1.7 80,2.7 120,7.5c40,4.8 80,10.2 120,11.8c40,1.7 80,-0.3 120,-1.6c40,-1.4 80,-2 120,2.1c40,4.2 80,13.2 120,16c40,2.9 80,-0.5 120,-6c40,-5.5 80,-13.1 100,-17l20,-3.8l0,101l-20,0c-20,0 -60,0 -100,0c-40,0 -80,0 -120,0c-40,0 -80,0 -120,0c-40,0 -80,0 -120,0c-40,0 -80,0 -120,0c-40,0 -80,0 -120,0c-40,0 -80,0 -120,0c-40,0 -80,0 -100,0l-20,0l0,-93z"/>
  <path id="svg_6" fill="#121214" d="m0,225l20,0.8c20,0.9 60,2.5 100,5.4c40,2.8 80,6.8 120,7.8c40,1 80,-1 120,-4c40,-3 80,-7 120,-7.2c40,-0.1 80,3.5 120,8c40,4.5 80,9.9 120,11c40,1.2 80,-1.8 120,-1.8c40,0 80,3 100,4.5l20,1.5l0,49l-20,0c-20,0 -60,0 -100,0c-40,0 -80,0 -120,0c-40,0 -80,0 -120,0c-40,0 -80,0 -120,0c-40,0 -80,0 -120,0c-40,0 -80,0 -120,0c-40,0 -80,0 -120,0c-40,0 -80,0 -100,0l-20,0l0,-75z"/>
 </g>
</svg>