<svg id="visual" viewBox="0 0 960 300" width="960" height="300" xmlns="http://www.w3.org/2000/svg" xmlns:xlink="http://www.w3.org/1999/xlink" version="1.1"><rect x="0" y="0" width="960" height="300" fill="#121212"></rect><path d="M0 104L20 95.5C40 87 80 70 120 69.8C160 69.7 200 86.3 240 86.8C280 87.3 320 71.7 360 74.3C400 77 440 98 480 100.5C520 103 560 87 600 79.5C640 72 680 73 720 67.7C760 62.3 800 50.7 840 57C880 63.3 920 87.7 940 99.8L960 112L960 301L940 301C920 301 880 301 840 301C800 301 760 301 720 301C680 301 640 301 600 301C560 301 520 301 480 301C440 301 400 301 360 301C320 301 280 301 240 301C200 301 160 301 120 301C80 301 40 301 20 301L0 301Z" fill="#ffbc01"></path><path d="M0 121L20 125.3C40 129.7 80 138.3 120 140.7C160 143 200 139 240 133.2C280 127.3 320 119.7 360 111.5C400 103.3 440 94.7 480 99.8C520 105 560 124 600 132.8C640 141.7 680 140.3 720 132.2C760 124 800 109 840 104.2C880 99.3 920 104.7 940 107.3L960 110L960 301L940 301C920 301 880 301 840 301C800 301 760 301 720 301C680 301 640 301 600 301C560 301 520 301 480 301C440 301 400 301 360 301C320 301 280 301 240 301C200 301 160 301 120 301C80 301 40 301 20 301L0 301Z" fill="#be8d19"></path><path d="M0 170L20 165.5C40 161 80 152 120 152.7C160 153.3 200 163.7 240 171C280 178.3 320 182.7 360 176C400 169.3 440 151.7 480 147.2C520 142.7 560 151.3 600 158.7C640 166 680 172 720 171C760 170 800 162 840 154.5C880 147 920 140 940 136.5L960 133L960 301L940 301C920 301 880 301 840 301C800 301 760 301 720 301C680 301 640 301 600 301C560 301 520 301 480 301C440 301 400 301 360 301C320 301 280 301 240 301C200 301 160 301 120 301C80 301 40 301 20 301L0 301Z" fill="#80601d"></path><path d="M0 208L20 204.2C40 200.3 80 192.7 120 191C160 189.3 200 193.7 240 198.5C280 203.3 320 208.7 360 210.3C400 212 440 210 480 208.7C520 207.3 560 206.7 600 210.8C640 215 680 224 720 226.8C760 229.7 800 226.3 840 220.8C880 215.3 920 207.7 940 203.8L960 200L960 301L940 301C920 301 880 301 840 301C800 301 760 301 720 301C680 301 640 301 600 301C560 301 520 301 480 301C440 301 400 301 360 301C320 301 280 301 240 301C200 301 160 301 120 301C80 301 40 301 20 301L0 301Z" fill="#47371a"></path><path d="M0 226L20 226.8C40 227.7 80 229.3 120 232.2C160 235 200 239 240 240C280 241 320 239 360 236C400 233 440 229 480 228.8C520 228.7 560 232.3 600 236.8C640 241.3 680 246.7 720 247.8C760 249 800 246 840 246C880 246 920 249 940 250.5L960 252L960 301L940 301C920 301 880 301 840 301C800 301 760 301 720 301C680 301 640 301 600 301C560 301 520 301 480 301C440 301 400 301 360 301C320 301 280 301 240 301C200 301 160 301 120 301C80 301 40 301 20 301L0 301Z" fill="#121212"></path></svg>
