<svg width="960" height="200" xmlns="http://www.w3.org/2000/svg" version="1.1">

 <g>
  <title>Layer 1</title>
  <rect id="svg_1" fill="#121212" height="200" width="960" y="0" x="0"/>
  <path id="svg_2" fill="#ffbc01" d="m0,21l16,3c16,3 48,9 80,20.3c32,11.4 64,28 96,31c32,3 64,-7.6 96,-6.6c32,1 64,13.6 96,16.1c32,2.5 64,-5.1 96,-15.6c32,-10.5 64,-23.9 96,-31c32,-7.2 64,-8.2 96,-0.9c32,7.4 64,23 96,18.4c32,-4.7 64,-29.7 96,-23.4c32,6.4 64,44 80,62.9l16,18.8l0,87l-16,0c-16,0 -48,0 -80,0c-32,0 -64,0 -96,0c-32,0 -64,0 -96,0c-32,0 -64,0 -96,0c-32,0 -64,0 -96,0c-32,0 -64,0 -96,0c-32,0 -64,0 -96,0c-32,0 -64,0 -96,0c-32,0 -64,0 -96,0c-32,0 -64,0 -80,0l-16,0l0,-180z"/>
  <path id="svg_3" fill="#e7aa0f" d="m0,47l16,-1.8c16,-1.9 48,-5.5 80,-9.7c32,-4.2 64,-8.8 96,-5.8c32,3 64,13.6 96,12.8c32,-0.8 64,-13.2 96,-4.3c32,8.8 64,38.8 96,40.3c32,1.5 64,-25.5 96,-36.3c32,-10.9 64,-5.5 96,-2.9c32,2.7 64,2.7 96,1.2c32,-1.5 64,-4.5 96,-5.7c32,-1.1 64,-0.5 80,-0.1l16,0.3l0,166l-16,0c-16,0 -48,0 -80,0c-32,0 -64,0 -96,0c-32,0 -64,0 -96,0c-32,0 -64,0 -96,0c-32,0 -64,0 -96,0c-32,0 -64,0 -96,0c-32,0 -64,0 -96,0c-32,0 -64,0 -96,0c-32,0 -64,0 -96,0c-32,0 -64,0 -80,0l-16,0l0,-154z"/>
  <path id="svg_4" fill="#cf9916" d="m0,80l16,-3.7c16,-3.6 48,-11 80,-15.8c32,-4.8 64,-7.2 96,3.7c32,10.8 64,34.8 96,42.6c32,7.9 64,-0.5 96,-7.6c32,-7.2 64,-13.2 96,-10.5c32,2.6 64,14 96,18.6c32,4.7 64,2.7 96,-5.5c32,-8.1 64,-22.5 96,-27.8c32,-5.3 64,-1.7 96,-0.5c32,1.2 64,-0.2 80,-0.8l16,-0.7l0,129l-16,0c-16,0 -48,0 -80,0c-32,0 -64,0 -96,0c-32,0 -64,0 -96,0c-32,0 -64,0 -96,0c-32,0 -64,0 -96,0c-32,0 -64,0 -96,0c-32,0 -64,0 -96,0c-32,0 -64,0 -96,0c-32,0 -64,0 -96,0c-32,0 -64,0 -80,0l-16,0l0,-121z"/>
  <path id="svg_5" fill="#b8881a" d="m0,73l16,4.8c16,4.9 48,14.5 80,10c32,-4.5 64,-23.1 96,-24.6c32,-1.5 64,14.1 96,28.5c32,14.3 64,27.3 96,34.5c32,7.1 64,8.5 96,-3.5c32,-12 64,-37.4 96,-42.5c32,-5.2 64,9.8 96,19c32,9.1 64,12.5 96,15.5c32,3 64,5.6 96,-2.7c32,-8.3 64,-27.7 80,-37.3l16,-9.7l0,136l-16,0c-16,0 -48,0 -80,0c-32,0 -64,0 -96,0c-32,0 -64,0 -96,0c-32,0 -64,0 -96,0c-32,0 -64,0 -96,0c-32,0 -64,0 -96,0c-32,0 -64,0 -96,0c-32,0 -64,0 -96,0c-32,0 -64,0 -96,0c-32,0 -64,0 -80,0l-16,0l0,-128z"/>
  <path id="svg_6" fill="#a1781c" d="m0,107l16,5c16,5 48,15 80,8.8c32,-6.1 64,-28.5 96,-31.6c32,-3.2 64,12.8 96,16c32,3.1 64,-6.5 96,-6.2c32,0.3 64,10.7 96,6.7c32,-4 64,-22.4 96,-19.9c32,2.5 64,25.9 96,30.9c32,5 64,-8.4 96,-14.9c32,-6.5 64,-6.1 96,-0.5c32,5.7 64,16.7 80,22.2l16,5.5l0,72l-16,0c-16,0 -48,0 -80,0c-32,0 -64,0 -96,0c-32,0 -64,0 -96,0c-32,0 -64,0 -96,0c-32,0 -64,0 -96,0c-32,0 -64,0 -96,0c-32,0 -64,0 -96,0c-32,0 -64,0 -96,0c-32,0 -64,0 -96,0c-32,0 -64,0 -80,0l-16,0l0,-94z"/>
  <path id="svg_7" fill="#8b681d" d="m0,121l16,-5.8c16,-5.9 48,-17.5 80,-17.2c32,0.3 64,12.7 96,18.5c32,5.8 64,5.2 96,3.8c32,-1.3 64,-3.3 96,-8.8c32,-5.5 64,-14.5 96,-19.8c32,-5.4 64,-7 96,-8.4c32,-1.3 64,-2.3 96,0.7c32,3 64,10 96,18.3c32,8.4 64,18 96,23.2c32,5.2 64,5.8 80,6.2l16,0.3l0,69l-16,0c-16,0 -48,0 -80,0c-32,0 -64,0 -96,0c-32,0 -64,0 -96,0c-32,0 -64,0 -96,0c-32,0 -64,0 -96,0c-32,0 -64,0 -96,0c-32,0 -64,0 -96,0c-32,0 -64,0 -96,0c-32,0 -64,0 -96,0c-32,0 -64,0 -80,0l-16,0l0,-80z"/>
  <path id="svg_8" fill="#75581d" d="m0,135l16,-3.5c16,-3.5 48,-10.5 80,-16c32,-5.5 64,-9.5 96,-11.7c32,-2.1 64,-2.5 96,1.2c32,3.7 64,11.3 96,15.2c32,3.8 64,3.8 96,6.5c32,2.6 64,8 96,12.5c32,4.5 64,8.1 96,4.3c32,-3.8 64,-15.2 96,-25.2c32,-10 64,-18.6 96,-14.5c32,4.2 64,21.2 80,29.7l16,8.5l0,59l-16,0c-16,0 -48,0 -80,0c-32,0 -64,0 -96,0c-32,0 -64,0 -96,0c-32,0 -64,0 -96,0c-32,0 -64,0 -96,0c-32,0 -64,0 -96,0c-32,0 -64,0 -96,0c-32,0 -64,0 -96,0c-32,0 -64,0 -96,0c-32,0 -64,0 -80,0l-16,0l0,-66z"/>
  <path id="svg_9" fill="#60491c" d="m0,112l16,1.8c16,1.9 48,5.5 80,5.2c32,-0.3 64,-4.7 96,1.3c32,6 64,22.4 96,28.9c32,6.5 64,3.1 96,-1.9c32,-5 64,-11.6 96,-10.8c32,0.8 64,9.2 96,11c32,1.8 64,-2.8 96,-0.8c32,2 64,10.6 96,6.1c32,-4.5 64,-22.1 96,-23c32,-0.8 64,15.2 80,23.2l16,8l0,40l-16,0c-16,0 -48,0 -80,0c-32,0 -64,0 -96,0c-32,0 -64,0 -96,0c-32,0 -64,0 -96,0c-32,0 -64,0 -96,0c-32,0 -64,0 -96,0c-32,0 -64,0 -96,0c-32,0 -64,0 -96,0c-32,0 -64,0 -96,0c-32,0 -64,0 -80,0l-16,0l0,-89z"/>
  <path id="svg_10" fill="#4c3b1b" d="m0,159l16,-4c16,-4 48,-12 80,-14.3c32,-2.4 64,1 96,5c32,4 64,8.6 96,6c32,-2.7 64,-12.7 96,-13c32,-0.4 64,9 96,16.5c32,7.5 64,13.1 96,11.6c32,-1.5 64,-10.1 96,-11c32,-0.8 64,6.2 96,5.2c32,-1 64,-10 96,-10.2c32,-0.1 64,8.5 80,12.9l16,4.3l0,33l-16,0c-16,0 -48,0 -80,0c-32,0 -64,0 -96,0c-32,0 -64,0 -96,0c-32,0 -64,0 -96,0c-32,0 -64,0 -96,0c-32,0 -64,0 -96,0c-32,0 -64,0 -96,0c-32,0 -64,0 -96,0c-32,0 -64,0 -96,0c-32,0 -64,0 -80,0l-16,0l0,-42z"/>
  <path id="svg_11" fill="#382d18" d="m0,149l16,4.3c16,4.4 48,13 80,15c32,2 64,-2.6 96,-7.3c32,-4.7 64,-9.3 96,-10.7c32,-1.3 64,0.7 96,2c32,1.4 64,2 96,-0.1c32,-2.2 64,-7.2 96,-6.7c32,0.5 64,6.5 96,13.3c32,6.9 64,14.5 96,15.2c32,0.7 64,-5.7 96,-7.3c32,-1.7 64,1.3 80,2.8l16,1.5l0,30l-16,0c-16,0 -48,0 -80,0c-32,0 -64,0 -96,0c-32,0 -64,0 -96,0c-32,0 -64,0 -96,0c-32,0 -64,0 -96,0c-32,0 -64,0 -96,0c-32,0 -64,0 -96,0c-32,0 -64,0 -96,0c-32,0 -64,0 -96,0c-32,0 -64,0 -80,0l-16,0l0,-52z"/>
  <path id="svg_12" fill="#251f16" d="m0,165l16,-1.8c16,-1.9 48,-5.5 80,-6.4c32,-0.8 64,1.2 96,5.7c32,4.5 64,11.5 96,12.3c32,0.9 64,-4.5 96,-3.8c32,0.7 64,7.3 96,8.3c32,1 64,-3.6 96,-6.5c32,-2.8 64,-3.8 96,-1.8c32,2 64,7 96,9.3c32,2.4 64,2 96,0.7c32,-1.3 64,-3.7 80,-4.8l16,-1.2l0,26l-16,0c-16,0 -48,0 -80,0c-32,0 -64,0 -96,0c-32,0 -64,0 -96,0c-32,0 -64,0 -96,0c-32,0 -64,0 -96,0c-32,0 -64,0 -96,0c-32,0 -64,0 -96,0c-32,0 -64,0 -96,0c-32,0 -64,0 -96,0c-32,0 -64,0 -80,0l-16,0l0,-36z"/>
  <path id="svg_13" fill="#121212" d="m0,172.33333l16,1.8c16,1.9 48,5.5 80,8c32,2.5 64,3.9 96,5.7c32,1.8 64,4.2 96,1.5c32,-2.7 64,-10.3 96,-14c32,-3.7 64,-3.3 96,1.3c32,4.7 64,13.7 96,16.9c32,3.1 64,0.5 96,-2.4c32,-2.8 64,-5.8 96,-8.5c32,-2.6 64,-5 96,-7c32,-2 64,-3.6 80,-4.5l16,-0.8l0,32l-16,0c-16,0 -48,0 -80,0c-32,0 -64,0 -96,0c-32,0 -64,0 -96,0c-32,0 -64,0 -96,0c-32,0 -64,0 -96,0c-32,0 -64,0 -96,0c-32,0 -64,0 -96,0c-32,0 -64,0 -96,0c-32,0 -64,0 -96,0c-32,0 -64,0 -80,0l-16,0l0,-30z"/>
  <line stroke-linecap="undefined" stroke-linejoin="undefined" id="svg_15" y2="198.94737" x2="219.21053" y1="199.47368" x1="0.26316" fill="#121212"/>
 </g>
</svg>