<svg id="visual" viewBox="0 0 960 200" width="960" height="200" xmlns="http://www.w3.org/2000/svg" xmlns:xlink="http://www.w3.org/1999/xlink" version="1.1"><rect x="0" y="0" width="960" height="200" fill="#121212"></rect><path d="M0 21L16 24C32 27 64 33 96 44.3C128 55.7 160 72.3 192 75.3C224 78.3 256 67.7 288 68.7C320 69.7 352 82.3 384 84.8C416 87.3 448 79.7 480 69.2C512 58.7 544 45.3 576 38.2C608 31 640 30 672 37.3C704 44.7 736 60.3 768 55.7C800 51 832 26 864 32.3C896 38.7 928 76.3 944 95.2L960 114L960 201L944 201C928 201 896 201 864 201C832 201 800 201 768 201C736 201 704 201 672 201C640 201 608 201 576 201C544 201 512 201 480 201C448 201 416 201 384 201C352 201 320 201 288 201C256 201 224 201 192 201C160 201 128 201 96 201C64 201 32 201 16 201L0 201Z" fill="#1f1f1f"></path><path d="M0 47L16 45.2C32 43.3 64 39.7 96 35.5C128 31.3 160 26.7 192 29.7C224 32.7 256 43.3 288 42.5C320 41.7 352 29.3 384 38.2C416 47 448 77 480 78.5C512 80 544 53 576 42.2C608 31.3 640 36.7 672 39.3C704 42 736 42 768 40.5C800 39 832 36 864 34.8C896 33.7 928 34.3 944 34.7L960 35L960 201L944 201C928 201 896 201 864 201C832 201 800 201 768 201C736 201 704 201 672 201C640 201 608 201 576 201C544 201 512 201 480 201C448 201 416 201 384 201C352 201 320 201 288 201C256 201 224 201 192 201C160 201 128 201 96 201C64 201 32 201 16 201L0 201Z" fill="#1e1e1e"></path><path d="M0 80L16 76.3C32 72.7 64 65.3 96 60.5C128 55.7 160 53.3 192 64.2C224 75 256 99 288 106.8C320 114.7 352 106.3 384 99.2C416 92 448 86 480 88.7C512 91.3 544 102.7 576 107.3C608 112 640 110 672 101.8C704 93.7 736 79.3 768 74C800 68.7 832 72.3 864 73.5C896 74.7 928 73.3 944 72.7L960 72L960 201L944 201C928 201 896 201 864 201C832 201 800 201 768 201C736 201 704 201 672 201C640 201 608 201 576 201C544 201 512 201 480 201C448 201 416 201 384 201C352 201 320 201 288 201C256 201 224 201 192 201C160 201 128 201 96 201C64 201 32 201 16 201L0 201Z" fill="#1d1d1d"></path><path d="M0 73L16 77.8C32 82.7 64 92.3 96 87.8C128 83.3 160 64.7 192 63.2C224 61.7 256 77.3 288 91.7C320 106 352 119 384 126.2C416 133.3 448 134.7 480 122.7C512 110.7 544 85.3 576 80.2C608 75 640 90 672 99.2C704 108.3 736 111.7 768 114.7C800 117.7 832 120.3 864 112C896 103.7 928 84.3 944 74.7L960 65L960 201L944 201C928 201 896 201 864 201C832 201 800 201 768 201C736 201 704 201 672 201C640 201 608 201 576 201C544 201 512 201 480 201C448 201 416 201 384 201C352 201 320 201 288 201C256 201 224 201 192 201C160 201 128 201 96 201C64 201 32 201 16 201L0 201Z" fill="#1c1c1c"></path><path d="M0 107L16 112C32 117 64 127 96 120.8C128 114.7 160 92.3 192 89.2C224 86 256 102 288 105.2C320 108.3 352 98.7 384 99C416 99.3 448 109.7 480 105.7C512 101.7 544 83.3 576 85.8C608 88.3 640 111.7 672 116.7C704 121.7 736 108.3 768 101.8C800 95.3 832 95.7 864 101.3C896 107 928 118 944 123.5L960 129L960 201L944 201C928 201 896 201 864 201C832 201 800 201 768 201C736 201 704 201 672 201C640 201 608 201 576 201C544 201 512 201 480 201C448 201 416 201 384 201C352 201 320 201 288 201C256 201 224 201 192 201C160 201 128 201 96 201C64 201 32 201 16 201L0 201Z" fill="#1b1b1b"></path><path d="M0 121L16 115.2C32 109.3 64 97.7 96 98C128 98.3 160 110.7 192 116.5C224 122.3 256 121.7 288 120.3C320 119 352 117 384 111.5C416 106 448 97 480 91.7C512 86.3 544 84.7 576 83.3C608 82 640 81 672 84C704 87 736 94 768 102.3C800 110.7 832 120.3 864 125.5C896 130.7 928 131.3 944 131.7L960 132L960 201L944 201C928 201 896 201 864 201C832 201 800 201 768 201C736 201 704 201 672 201C640 201 608 201 576 201C544 201 512 201 480 201C448 201 416 201 384 201C352 201 320 201 288 201C256 201 224 201 192 201C160 201 128 201 96 201C64 201 32 201 16 201L0 201Z" fill="#1a1a1a"></path><path d="M0 135L16 131.5C32 128 64 121 96 115.5C128 110 160 106 192 103.8C224 101.7 256 101.3 288 105C320 108.7 352 116.3 384 120.2C416 124 448 124 480 126.7C512 129.3 544 134.7 576 139.2C608 143.7 640 147.3 672 143.5C704 139.7 736 128.3 768 118.3C800 108.3 832 99.7 864 103.8C896 108 928 125 944 133.5L960 142L960 201L944 201C928 201 896 201 864 201C832 201 800 201 768 201C736 201 704 201 672 201C640 201 608 201 576 201C544 201 512 201 480 201C448 201 416 201 384 201C352 201 320 201 288 201C256 201 224 201 192 201C160 201 128 201 96 201C64 201 32 201 16 201L0 201Z" fill="#181818"></path><path d="M0 112L16 113.8C32 115.7 64 119.3 96 119C128 118.7 160 114.3 192 120.3C224 126.3 256 142.7 288 149.2C320 155.7 352 152.3 384 147.3C416 142.3 448 135.7 480 136.5C512 137.3 544 145.7 576 147.5C608 149.3 640 144.7 672 146.7C704 148.7 736 157.3 768 152.8C800 148.3 832 130.7 864 129.8C896 129 928 145 944 153L960 161L960 201L944 201C928 201 896 201 864 201C832 201 800 201 768 201C736 201 704 201 672 201C640 201 608 201 576 201C544 201 512 201 480 201C448 201 416 201 384 201C352 201 320 201 288 201C256 201 224 201 192 201C160 201 128 201 96 201C64 201 32 201 16 201L0 201Z" fill="#171717"></path><path d="M0 159L16 155C32 151 64 143 96 140.7C128 138.3 160 141.7 192 145.7C224 149.7 256 154.3 288 151.7C320 149 352 139 384 138.7C416 138.3 448 147.7 480 155.2C512 162.7 544 168.3 576 166.8C608 165.3 640 156.7 672 155.8C704 155 736 162 768 161C800 160 832 151 864 150.8C896 150.7 928 159.3 944 163.7L960 168L960 201L944 201C928 201 896 201 864 201C832 201 800 201 768 201C736 201 704 201 672 201C640 201 608 201 576 201C544 201 512 201 480 201C448 201 416 201 384 201C352 201 320 201 288 201C256 201 224 201 192 201C160 201 128 201 96 201C64 201 32 201 16 201L0 201Z" fill="#161616"></path><path d="M0 149L16 153.3C32 157.7 64 166.3 96 168.3C128 170.3 160 165.7 192 161C224 156.3 256 151.7 288 150.3C320 149 352 151 384 152.3C416 153.7 448 154.3 480 152.2C512 150 544 145 576 145.5C608 146 640 152 672 158.8C704 165.7 736 173.3 768 174C800 174.7 832 168.3 864 166.7C896 165 928 168 944 169.5L960 171L960 201L944 201C928 201 896 201 864 201C832 201 800 201 768 201C736 201 704 201 672 201C640 201 608 201 576 201C544 201 512 201 480 201C448 201 416 201 384 201C352 201 320 201 288 201C256 201 224 201 192 201C160 201 128 201 96 201C64 201 32 201 16 201L0 201Z" fill="#151515"></path><path d="M0 165L16 163.2C32 161.3 64 157.7 96 156.8C128 156 160 158 192 162.5C224 167 256 174 288 174.8C320 175.7 352 170.3 384 171C416 171.7 448 178.3 480 179.3C512 180.3 544 175.7 576 172.8C608 170 640 169 672 171C704 173 736 178 768 180.3C800 182.7 832 182.3 864 181C896 179.7 928 177.3 944 176.2L960 175L960 201L944 201C928 201 896 201 864 201C832 201 800 201 768 201C736 201 704 201 672 201C640 201 608 201 576 201C544 201 512 201 480 201C448 201 416 201 384 201C352 201 320 201 288 201C256 201 224 201 192 201C160 201 128 201 96 201C64 201 32 201 16 201L0 201Z" fill="#131313"></path><path d="M0 171L16 172.8C32 174.7 64 178.3 96 180.8C128 183.3 160 184.7 192 186.5C224 188.3 256 190.7 288 188C320 185.3 352 177.7 384 174C416 170.3 448 170.7 480 175.3C512 180 544 189 576 192.2C608 195.3 640 192.7 672 189.8C704 187 736 184 768 181.3C800 178.7 832 176.3 864 174.3C896 172.3 928 170.7 944 169.8L960 169L960 201L944 201C928 201 896 201 864 201C832 201 800 201 768 201C736 201 704 201 672 201C640 201 608 201 576 201C544 201 512 201 480 201C448 201 416 201 384 201C352 201 320 201 288 201C256 201 224 201 192 201C160 201 128 201 96 201C64 201 32 201 16 201L0 201Z" fill="#121212"></path></svg>