<svg width="960" height="200" xmlns="http://www.w3.org/2000/svg" version="1.1">
 <g>
  <title>Layer 1</title>
  <rect x="0" y="0" width="960" height="200" fill="#121212" id="svg_1"/>
  <path d="m-0.00006,0.99999l16.93333,3.11667c16.93333,3.11667 50.8,9.35 84.66667,21.08945c33.86667,11.84333 67.73333,29.08889 101.6,32.20556c33.86667,3.11667 67.73333,-7.89556 101.6,-6.85667c33.86667,1.03889 67.73333,14.12889 101.6,16.72611c33.86667,2.59722 67.73333,-5.29833 101.6,-16.20667c33.86667,-10.90833 67.73333,-24.82945 101.6,-32.20556c33.86667,-7.48 67.73333,-8.51889 101.6,-0.935c33.86667,7.68778 67.73333,23.89445 101.6,19.11556c33.86667,-4.88278 67.73333,-30.855 101.6,-24.31c33.86667,6.64889 67.73333,45.71111 84.66667,65.34611l16.93333,19.53111l0,90.38334l-16.93333,0c-16.93333,0 -50.8,0 -84.66667,0c-33.86667,0 -67.73333,0 -101.6,0c-33.86667,0 -67.73333,0 -101.6,0c-33.86667,0 -67.73333,0 -101.6,0c-33.86667,0 -67.73333,0 -101.6,0c-33.86667,0 -67.73333,0 -101.6,0c-33.86667,0 -67.73333,0 -101.6,0c-33.86667,0 -67.73333,0 -101.6,0c-33.86667,0 -67.73333,0 -101.6,0c-33.86667,0 -67.73333,0 -84.66667,0l-16.93333,0l0,-187.00001z" fill="#ffbc01" id="svg_2"/>
  <path d="m-1,64.04589l16,-1.70596c16,-1.80073 48,-5.21265 80,-9.19321c32,-3.98057 64,-8.34023 96,-5.49697c32,2.84326 64,12.88945 96,12.13125c32,-0.7582 64,-12.51035 96,-4.07534c32,8.34023 64,36.77285 96,38.19448c32,1.42163 64,-24.16773 96,-34.40347c32,-10.33052 64,-5.21265 96,-2.74849c32,2.55894 64,2.55894 96,1.1373c32,-1.42163 64,-4.26489 96,-5.4022c32,-1.04253 64,-0.47388 80,-0.09478l16,0.28433l0,157.32716l-16,0c-16,0 -48,0 -80,0c-32,0 -64,0 -96,0c-32,0 -64,0 -96,0c-32,0 -64,0 -96,0c-32,0 -64,0 -96,0c-32,0 -64,0 -96,0c-32,0 -64,0 -96,0c-32,0 -64,0 -96,0c-32,0 -64,0 -96,0c-32,0 -64,0 -80,0l-16,0l0,-145.95411z" fill="#e7aa0f" id="svg_3"/>
  <path d="m0,71l16,4.8c16,4.9 48,14.5 80,10c32,-4.5 64,-23.1 96,-24.6c32,-1.5 64,14.1 96,28.5c32,14.3 64,27.3 96,34.5c32,7.1 64,8.5 96,-3.5c32,-12 64,-37.4 96,-42.5c32,-5.2 64,9.8 96,19c32,9.1 64,12.5 96,15.5c32,3 64,5.6 96,-2.7c32,-8.3 64,-27.7 80,-37.3l16,-9.7l0,136l-16,0c-16,0 -48,0 -80,0c-32,0 -64,0 -96,0c-32,0 -64,0 -96,0c-32,0 -64,0 -96,0c-32,0 -64,0 -96,0c-32,0 -64,0 -96,0c-32,0 -64,0 -96,0c-32,0 -64,0 -96,0c-32,0 -64,0 -96,0c-32,0 -64,0 -80,0l-16,0l0,-128z" fill="#b8881a" id="svg_5"/>
  <path d="m0,85l16,5c16,5 48,15 80,8.8c32,-6.1 64,-28.5 96,-31.6c32,-3.2 64,12.8 96,16c32,3.1 64,-6.5 96,-6.2c32,0.3 64,10.7 96,6.7c32,-4 64,-22.4 96,-19.9c32,2.5 64,25.9 96,30.9c32,5 64,-8.4 96,-14.9c32,-6.5 64,-6.1 96,-0.5c32,5.7 64,16.7 80,22.2l16,5.5l0,72l-16,0c-16,0 -48,0 -80,0c-32,0 -64,0 -96,0c-32,0 -64,0 -96,0c-32,0 -64,0 -96,0c-32,0 -64,0 -96,0c-32,0 -64,0 -96,0c-32,0 -64,0 -96,0c-32,0 -64,0 -96,0c-32,0 -64,0 -96,0c-32,0 -64,0 -80,0l-16,0l0,-94z" fill="#a1781c" id="svg_6"/>
  <path d="m0,121l16,-5.8c16,-5.9 48,-17.5 80,-17.2c32,0.3 64,12.7 96,18.5c32,5.8 64,5.2 96,3.8c32,-1.3 64,-3.3 96,-8.8c32,-5.5 64,-14.5 96,-19.8c32,-5.4 64,-7 96,-8.4c32,-1.3 64,-2.3 96,0.7c32,3 64,10 96,18.3c32,8.4 64,18 96,23.2c32,5.2 64,5.8 80,6.2l16,0.3l0,69l-16,0c-16,0 -48,0 -80,0c-32,0 -64,0 -96,0c-32,0 -64,0 -96,0c-32,0 -64,0 -96,0c-32,0 -64,0 -96,0c-32,0 -64,0 -96,0c-32,0 -64,0 -96,0c-32,0 -64,0 -96,0c-32,0 -64,0 -96,0c-32,0 -64,0 -80,0l-16,0l0,-80z" fill="#8b681d" id="svg_7"/>
  <path d="m0,123.91172l16,-4.77031c16,-4.77031 48,-14.31094 80,-17.05387c32,-2.86219 64,1.19258 96,5.96289c32,4.77031 64,10.25617 96,7.15547c32,-3.21996 64,-15.14574 96,-15.50352c32,-0.47703 64,10.7332 96,19.67754c32,8.94434 64,15.62277 96,13.83391c32,-1.78887 64,-12.04504 96,-13.11836c32,-0.95406 64,7.39398 96,6.20141c32,-1.19258 64,-11.92578 96,-12.1643c32,-0.11926 64,10.13691 80,15.38426l16,5.12809l0,39.35508l-16,0c-16,0 -48,0 -80,0c-32,0 -64,0 -96,0c-32,0 -64,0 -96,0c-32,0 -64,0 -96,0c-32,0 -64,0 -96,0c-32,0 -64,0 -96,0c-32,0 -64,0 -96,0c-32,0 -64,0 -96,0c-32,0 -64,0 -96,0c-32,0 -64,0 -80,0l-16,0l0,-50.08828z" fill="#4c3b1b" id="svg_10"/>
  <path d="m0,147.1273l16,4.45486c16,4.55846 48,13.46817 80,15.5402c32,2.07203 64,-2.69363 96,-7.5629c32,-4.86926 64,-9.63492 96,-11.08534c32,-1.34682 64,0.72521 96,2.07203c32,1.45042 64,2.07203 96,-0.1036c32,-2.27923 64,-7.4593 96,-6.94129c32,0.51801 64,6.73409 96,13.77898c32,7.14849 64,15.02219 96,15.7474c32,0.72521 64,-5.90528 96,-7.5629c32,-1.76122 64,1.34682 80,2.90084l16,1.55402l0,31.0804l-16,0c-16,0 -48,0 -80,0c-32,0 -64,0 -96,0c-32,0 -64,0 -96,0c-32,0 -64,0 -96,0c-32,0 -64,0 -96,0c-32,0 -64,0 -96,0c-32,0 -64,0 -96,0c-32,0 -64,0 -96,0c-32,0 -64,0 -96,0c-32,0 -64,0 -80,0l-16,0l0,-53.87269z" fill="#382d18" id="svg_11"/>
  <path d="m0,161l16,-1.8c16,-1.9 48,-5.5 80,-6.4c32,-0.8 64,1.2 96,5.7c32,4.5 64,11.5 96,12.3c32,0.9 64,-4.5 96,-3.8c32,0.7 64,7.3 96,8.3c32,1 64,-3.6 96,-6.5c32,-2.8 64,-3.8 96,-1.8c32,2 64,7 96,9.3c32,2.4 64,2 96,0.7c32,-1.3 64,-3.7 80,-4.8l16,-1.2l0,26l-16,0c-16,0 -48,0 -80,0c-32,0 -64,0 -96,0c-32,0 -64,0 -96,0c-32,0 -64,0 -96,0c-32,0 -64,0 -96,0c-32,0 -64,0 -96,0c-32,0 -64,0 -96,0c-32,0 -64,0 -96,0c-32,0 -64,0 -96,0c-32,0 -64,0 -80,0l-16,0l0,-36z" fill="#251f16" id="svg_12"/>
  <path d="m2,174.33333l16,1.8c16,1.9 48,5.5 80,8c32,2.5 64,3.9 96,5.7c32,1.8 64,4.2 96,1.5c32,-2.7 64,-10.3 96,-14c32,-3.7 64,-3.3 96,1.3c32,4.7 64,13.7 96,16.9c32,3.1 64,0.5 96,-2.4c32,-2.8 64,-5.8 96,-8.5c32,-2.6 64,-5 96,-7c32,-2 64,-3.6 80,-4.5l16,-0.8l0,32l-16,0c-16,0 -48,0 -80,0c-32,0 -64,0 -96,0c-32,0 -64,0 -96,0c-32,0 -64,0 -96,0c-32,0 -64,0 -96,0c-32,0 -64,0 -96,0c-32,0 -64,0 -96,0c-32,0 -64,0 -96,0c-32,0 -64,0 -96,0c-32,0 -64,0 -80,0l-16,0l0,-30z" fill="#121212" id="svg_13"/>
  <line fill="#121212" x1="0.26316" y1="199.47368" x2="219.21053" y2="198.94737" id="svg_15" stroke-linejoin="undefined" stroke-linecap="undefined"/>
 </g>

</svg>
