<svg id="visual" viewBox="0 0 960 200" width="960" height="200" xmlns="http://www.w3.org/2000/svg" xmlns:xlink="http://www.w3.org/1999/xlink" version="1.1"><rect x="0" y="0" width="960" height="200" fill="#121212"></rect><path d="M0 177L16 174C32 171 64 165 96 153.7C128 142.3 160 125.7 192 122.7C224 119.7 256 130.3 288 129.3C320 128.3 352 115.7 384 113.2C416 110.7 448 118.3 480 128.8C512 139.3 544 152.7 576 159.8C608 167 640 168 672 160.7C704 153.3 736 137.7 768 142.3C800 147 832 172 864 165.7C896 159.3 928 121.7 944 102.8L960 84L960 0L944 0C928 0 896 0 864 0C832 0 800 0 768 0C736 0 704 0 672 0C640 0 608 0 576 0C544 0 512 0 480 0C448 0 416 0 384 0C352 0 320 0 288 0C256 0 224 0 192 0C160 0 128 0 96 0C64 0 32 0 16 0L0 0Z" fill="#353535"></path><path d="M0 151L16 152.8C32 154.7 64 158.3 96 162.5C128 166.7 160 171.3 192 168.3C224 165.3 256 154.7 288 155.5C320 156.3 352 168.7 384 159.8C416 151 448 121 480 119.5C512 118 544 145 576 155.8C608 166.7 640 161.3 672 158.7C704 156 736 156 768 157.5C800 159 832 162 864 163.2C896 164.3 928 163.7 944 163.3L960 163L960 0L944 0C928 0 896 0 864 0C832 0 800 0 768 0C736 0 704 0 672 0C640 0 608 0 576 0C544 0 512 0 480 0C448 0 416 0 384 0C352 0 320 0 288 0C256 0 224 0 192 0C160 0 128 0 96 0C64 0 32 0 16 0L0 0Z" fill="#2e2e2e"></path><path d="M0 118L16 121.7C32 125.3 64 132.7 96 137.5C128 142.3 160 144.7 192 133.8C224 123 256 99 288 91.2C320 83.3 352 91.7 384 98.8C416 106 448 112 480 109.3C512 106.7 544 95.3 576 90.7C608 86 640 88 672 96.2C704 104.3 736 118.7 768 124C800 129.3 832 125.7 864 124.5C896 123.3 928 124.7 944 125.3L960 126L960 0L944 0C928 0 896 0 864 0C832 0 800 0 768 0C736 0 704 0 672 0C640 0 608 0 576 0C544 0 512 0 480 0C448 0 416 0 384 0C352 0 320 0 288 0C256 0 224 0 192 0C160 0 128 0 96 0C64 0 32 0 16 0L0 0Z" fill="#282828"></path><path d="M0 125L16 120.2C32 115.3 64 105.7 96 110.2C128 114.7 160 133.3 192 134.8C224 136.3 256 120.7 288 106.3C320 92 352 79 384 71.8C416 64.7 448 63.3 480 75.3C512 87.3 544 112.7 576 117.8C608 123 640 108 672 98.8C704 89.7 736 86.3 768 83.3C800 80.3 832 77.7 864 86C896 94.3 928 113.7 944 123.3L960 133L960 0L944 0C928 0 896 0 864 0C832 0 800 0 768 0C736 0 704 0 672 0C640 0 608 0 576 0C544 0 512 0 480 0C448 0 416 0 384 0C352 0 320 0 288 0C256 0 224 0 192 0C160 0 128 0 96 0C64 0 32 0 16 0L0 0Z" fill="#222222"></path><path d="M0 91L16 86C32 81 64 71 96 77.2C128 83.3 160 105.7 192 108.8C224 112 256 96 288 92.8C320 89.7 352 99.3 384 99C416 98.7 448 88.3 480 92.3C512 96.3 544 114.7 576 112.2C608 109.7 640 86.3 672 81.3C704 76.3 736 89.7 768 96.2C800 102.7 832 102.3 864 96.7C896 91 928 80 944 74.5L960 69L960 0L944 0C928 0 896 0 864 0C832 0 800 0 768 0C736 0 704 0 672 0C640 0 608 0 576 0C544 0 512 0 480 0C448 0 416 0 384 0C352 0 320 0 288 0C256 0 224 0 192 0C160 0 128 0 96 0C64 0 32 0 16 0L0 0Z" fill="#1b1b1b"></path><path d="M0 77L16 82.8C32 88.7 64 100.3 96 100C128 99.7 160 87.3 192 81.5C224 75.7 256 76.3 288 77.7C320 79 352 81 384 86.5C416 92 448 101 480 106.3C512 111.7 544 113.3 576 114.7C608 116 640 117 672 114C704 111 736 104 768 95.7C800 87.3 832 77.7 864 72.5C896 67.3 928 66.7 944 66.3L960 66L960 0L944 0C928 0 896 0 864 0C832 0 800 0 768 0C736 0 704 0 672 0C640 0 608 0 576 0C544 0 512 0 480 0C448 0 416 0 384 0C352 0 320 0 288 0C256 0 224 0 192 0C160 0 128 0 96 0C64 0 32 0 16 0L0 0Z" fill="#151515"></path><path d="M0 63L16 66.5C32 70 64 77 96 82.5C128 88 160 92 192 94.2C224 96.3 256 96.7 288 93C320 89.3 352 81.7 384 77.8C416 74 448 74 480 71.3C512 68.7 544 63.3 576 58.8C608 54.3 640 50.7 672 54.5C704 58.3 736 69.7 768 79.7C800 89.7 832 98.3 864 94.2C896 90 928 73 944 64.5L960 56L960 0L944 0C928 0 896 0 864 0C832 0 800 0 768 0C736 0 704 0 672 0C640 0 608 0 576 0C544 0 512 0 480 0C448 0 416 0 384 0C352 0 320 0 288 0C256 0 224 0 192 0C160 0 128 0 96 0C64 0 32 0 16 0L0 0Z" fill="#121212"></path><path d="M0 86L16 84.2C32 82.3 64 78.7 96 79C128 79.3 160 83.7 192 77.7C224 71.7 256 55.3 288 48.8C320 42.3 352 45.7 384 50.7C416 55.7 448 62.3 480 61.5C512 60.7 544 52.3 576 50.5C608 48.7 640 53.3 672 51.3C704 49.3 736 40.7 768 45.2C800 49.7 832 67.3 864 68.2C896 69 928 53 944 45L960 37L960 0L944 0C928 0 896 0 864 0C832 0 800 0 768 0C736 0 704 0 672 0C640 0 608 0 576 0C544 0 512 0 480 0C448 0 416 0 384 0C352 0 320 0 288 0C256 0 224 0 192 0C160 0 128 0 96 0C64 0 32 0 16 0L0 0Z" fill="#111111"></path><path d="M0 39L16 43C32 47 64 55 96 57.3C128 59.7 160 56.3 192 52.3C224 48.3 256 43.7 288 46.3C320 49 352 59 384 59.3C416 59.7 448 50.3 480 42.8C512 35.3 544 29.7 576 31.2C608 32.7 640 41.3 672 42.2C704 43 736 36 768 37C800 38 832 47 864 47.2C896 47.3 928 38.7 944 34.3L960 30L960 0L944 0C928 0 896 0 864 0C832 0 800 0 768 0C736 0 704 0 672 0C640 0 608 0 576 0C544 0 512 0 480 0C448 0 416 0 384 0C352 0 320 0 288 0C256 0 224 0 192 0C160 0 128 0 96 0C64 0 32 0 16 0L0 0Z" fill="#101010"></path><path d="M0 49L16 44.7C32 40.3 64 31.7 96 29.7C128 27.7 160 32.3 192 37C224 41.7 256 46.3 288 47.7C320 49 352 47 384 45.7C416 44.3 448 43.7 480 45.8C512 48 544 53 576 52.5C608 52 640 46 672 39.2C704 32.3 736 24.7 768 24C800 23.3 832 29.7 864 31.3C896 33 928 30 944 28.5L960 27L960 0L944 0C928 0 896 0 864 0C832 0 800 0 768 0C736 0 704 0 672 0C640 0 608 0 576 0C544 0 512 0 480 0C448 0 416 0 384 0C352 0 320 0 288 0C256 0 224 0 192 0C160 0 128 0 96 0C64 0 32 0 16 0L0 0Z" fill="#101010"></path><path d="M0 33L16 34.8C32 36.7 64 40.3 96 41.2C128 42 160 40 192 35.5C224 31 256 24 288 23.2C320 22.3 352 27.7 384 27C416 26.3 448 19.7 480 18.7C512 17.7 544 22.3 576 25.2C608 28 640 29 672 27C704 25 736 20 768 17.7C800 15.3 832 15.7 864 17C896 18.3 928 20.7 944 21.8L960 23L960 0L944 0C928 0 896 0 864 0C832 0 800 0 768 0C736 0 704 0 672 0C640 0 608 0 576 0C544 0 512 0 480 0C448 0 416 0 384 0C352 0 320 0 288 0C256 0 224 0 192 0C160 0 128 0 96 0C64 0 32 0 16 0L0 0Z" fill="#0f0f0f"></path><path d="M0 27L16 25.2C32 23.3 64 19.7 96 17.2C128 14.7 160 13.3 192 11.5C224 9.7 256 7.3 288 10C320 12.7 352 20.3 384 24C416 27.7 448 27.3 480 22.7C512 18 544 9 576 5.8C608 2.7 640 5.3 672 8.2C704 11 736 14 768 16.7C800 19.3 832 21.7 864 23.7C896 25.7 928 27.3 944 28.2L960 29L960 0L944 0C928 0 896 0 864 0C832 0 800 0 768 0C736 0 704 0 672 0C640 0 608 0 576 0C544 0 512 0 480 0C448 0 416 0 384 0C352 0 320 0 288 0C256 0 224 0 192 0C160 0 128 0 96 0C64 0 32 0 16 0L0 0Z" fill="#0e0e0e"></path></svg>