<svg id="visual" viewBox="0 0 960 300" width="960" height="300" xmlns="http://www.w3.org/2000/svg" xmlns:xlink="http://www.w3.org/1999/xlink" version="1.1"><rect x="0" y="0" width="960" height="300" fill="#121212"></rect><path d="M0 147L137 151L274 151L411 147L549 143L686 126L823 100L960 141L960 301L823 301L686 301L549 301L411 301L274 301L137 301L0 301Z" fill="#ffbc01"></path><path d="M0 147L137 134L274 149L411 166L549 136L686 182L823 171L960 134L960 301L823 301L686 301L549 301L411 301L274 301L137 301L0 301Z" fill="#ffb300"></path><path d="M0 187L137 184L274 178L411 205L549 208L686 207L823 171L960 197L960 301L823 301L686 301L549 301L411 301L274 301L137 301L0 301Z" fill="#ffaa00"></path><path d="M0 202L137 233L274 212L411 207L549 234L686 236L823 188L960 219L960 301L823 301L686 301L549 301L411 301L274 301L137 301L0 301Z" fill="#ffa200"></path><path d="M0 237L137 239L274 217L411 253L549 244L686 252L823 250L960 225L960 301L823 301L686 301L549 301L411 301L274 301L137 301L0 301Z" fill="#ff9900"></path><path d="M0 280L137 251L274 284L411 249L549 264L686 264L823 283L960 253L960 301L823 301L686 301L549 301L411 301L274 301L137 301L0 301Z" fill="#ff9000"></path></svg>