<svg id="visual" viewBox="0 0 960 100" width="960" height="100" xmlns="http://www.w3.org/2000/svg" xmlns:xlink="http://www.w3.org/1999/xlink" version="1.1"><path d="M0 38L16 38.7C32 39.3 64 40.7 96 38.7C128 36.7 160 31.3 192 32.3C224 33.3 256 40.7 288 43.5C320 46.3 352 44.7 384 41.8C416 39 448 35 480 31C512 27 544 23 576 23C608 23 640 27 672 26.8C704 26.7 736 22.3 768 23.7C800 25 832 32 864 31.8C896 31.7 928 24.3 944 20.7L960 17L960 101L944 101C928 101 896 101 864 101C832 101 800 101 768 101C736 101 704 101 672 101C640 101 608 101 576 101C544 101 512 101 480 101C448 101 416 101 384 101C352 101 320 101 288 101C256 101 224 101 192 101C160 101 128 101 96 101C64 101 32 101 16 101L0 101Z" fill="#ffbc01"></path><path d="M0 63L16 59.5C32 56 64 49 96 47.5C128 46 160 50 192 51.7C224 53.3 256 52.7 288 52.2C320 51.7 352 51.3 384 52.3C416 53.3 448 55.7 480 54.7C512 53.7 544 49.3 576 48.7C608 48 640 51 672 51.7C704 52.3 736 50.7 768 51.8C800 53 832 57 864 57.2C896 57.3 928 53.7 944 51.8L960 50L960 101L944 101C928 101 896 101 864 101C832 101 800 101 768 101C736 101 704 101 672 101C640 101 608 101 576 101C544 101 512 101 480 101C448 101 416 101 384 101C352 101 320 101 288 101C256 101 224 101 192 101C160 101 128 101 96 101C64 101 32 101 16 101L0 101Z" fill="#a97d1b"></path><path d="M0 70L16 71C32 72 64 74 96 71C128 68 160 60 192 58.2C224 56.3 256 60.7 288 60.7C320 60.7 352 56.3 384 55.8C416 55.3 448 58.7 480 60.8C512 63 544 64 576 65.2C608 66.3 640 67.7 672 66.3C704 65 736 61 768 61C800 61 832 65 864 65C896 65 928 61 944 59L960 57L960 101L944 101C928 101 896 101 864 101C832 101 800 101 768 101C736 101 704 101 672 101C640 101 608 101 576 101C544 101 512 101 480 101C448 101 416 101 384 101C352 101 320 101 288 101C256 101 224 101 192 101C160 101 128 101 96 101C64 101 32 101 16 101L0 101Z" fill="#59441c"></path><path d="M0 77L16 77.3C32 77.7 64 78.3 96 77.3C128 76.3 160 73.7 192 73.5C224 73.3 256 75.7 288 78.5C320 81.3 352 84.7 384 85.2C416 85.7 448 83.3 480 82.5C512 81.7 544 82.3 576 83C608 83.7 640 84.3 672 83.3C704 82.3 736 79.7 768 77C800 74.3 832 71.7 864 71.8C896 72 928 75 944 76.5L960 78L960 101L944 101C928 101 896 101 864 101C832 101 800 101 768 101C736 101 704 101 672 101C640 101 608 101 576 101C544 101 512 101 480 101C448 101 416 101 384 101C352 101 320 101 288 101C256 101 224 101 192 101C160 101 128 101 96 101C64 101 32 101 16 101L0 101Z" fill="#121214"></path></svg>