<svg xmlns="http://www.w3.org/2000/svg" viewBox="0 0 3000 3000"><defs><style>.cls-1{fill:#fa8500;}.cls-2{fill:#fea800;}.cls-3{fill:none;stroke:#fff;stroke-linecap:round;stroke-miterlimit:10;stroke-width:100px;}</style></defs><g id="Layer_4" data-name="Layer 4"><rect class="cls-1" width="3000" height="2992.621"/><ellipse class="cls-2" cx="1500" cy="-803.189" rx="3717.179" ry="2303.189"/></g><g id="Layer_2" data-name="Layer 2"><path d="M2278.7,1612.822a224.384,224.384,0,0,1-14.3,47.632c-25.012-196.13-295.053-391.014-651.04-455.86-368.149-67.061-699.332,28.435-778.647,215.241a227.113,227.113,0,0,1,1.713-69.735c39.661-217.729,394.678-335.42,792.953-262.872S2318.364,1395.094,2278.7,1612.822Z"/><path d="M1692.727,723.548a749.515,749.515,0,0,1,238.744,87.2c63.486,36.355,120.8,77.939,170.345,123.6,59.333,54.678,108.005,115.738,144.664,181.485a673.341,673.341,0,0,1,50.831,115.565,718.3,718.3,0,0,1,30.5,135.572c6.416,50.61,7.988,104.152,4.674,159.142-3.4,56.351-12.012,115.69-25.624,176.528-3.794,7.654-12.672,23.828-28.6,43.929-29.757,37.549-68.85,70.464-116.2,97.832-68.257,39.457-151.726,65.907-248.088,78.617-125.2,16.514-271.918,9.727-436.065-20.174s-303.831-75.283-415.17-134.885c-85.691-45.873-154.471-100.057-204.431-161.047-34.653-42.305-59.629-86.89-74.235-132.52-7.818-24.428-10.423-42.694-11.275-51.193,8.715-61.731,21.578-120.3,38.269-174.225,16.289-52.626,36.64-102.175,60.49-147.272A718.259,718.259,0,0,1,947.9,985.591a673.324,673.324,0,0,1,88.317-90.218c57.487-48.6,124.564-88.574,199.366-118.817,62.465-25.255,130.759-43.959,202.986-55.592a749.52,749.52,0,0,1,254.158,2.584m18.806-103.239a856.211,856.211,0,0,0-289.651-2.948c-281.524,45.344-676.1,215.143-754.414,801.519,0,0-3.669,442.331,791.635,587.2s947.843-270.342,947.843-270.342c133.486-576.325-175.876-874.353-423.328-1016.054a856.193,856.193,0,0,0-272.085-99.377Z"/><path d="M2509.4,2007.657c-43.117,201.155-347.02,488.69-1114.149,348.952s-950.123-515.966-919.54-719.4C494,1515.64,537.673,1419.438,569.877,1361.69q-3.48,21.3-6.426,43.3a105.134,105.134,0,0,0-.92,13.016c-.12,15.007,2.162,151.036,119.184,303.924,66.015,86.253,155.938,161.3,267.279,223.052,133.322,73.949,298.628,129.244,491.3,164.342s366.861,41.643,517.695,19.455c125.965-18.525,236.574-57.043,328.763-114.478,163.416-101.8,213.518-228.291,218.7-242.376a105.287,105.287,0,0,0,3.729-12.505q5.012-21.63,9.254-42.783C2528.208,1782.03,2535.158,1887.455,2509.4,2007.657Z"/></g><g id="Layer_5" data-name="Layer 5"><path class="cls-3" d="M1855.755,889.46c139.281,51.488,259.572,154.517,313.268,296.069"/></g></svg>